<svg
  data-logo="remedy"
  xmlns="http://www.w3.org/2000/svg"
  aria-hidden="true"
  focusable="false"
  width="520"
  height="111"
  viewBox="0 0 478.61 101.7"
>
  <path d="M31.59,35.75c4,0,8.91,1.08,12,3.15l1.26,7.74,9.81-.9L53.19,32.15c-3.78-3.51-11.07-7-21.06-7-22.23,0-30,17.55-30,31.14,0,17.37,12.69,29.16,29.43,29.16,8.37,0,18-3,21.87-7.11l1.17-13.77-9.81-.9-1.26,8.73c-2.25,1.35-6.75,2.43-11.16,2.43-10.08,0-17.28-5.76-17.28-19.35C15.12,42.68,21.51,35.75,31.59,35.75Z" transform="translate(-2.16 -2)"/><path d="M84.78,48.89c-5.31-1.17-10.08-2.52-10.08-7.47,0-4.23,3.6-5.67,8.37-5.67a15.42,15.42,0,0,1,9,2.61l.81,6.84,9.63-.9L102,31.61c-3.78-4-11.34-6.48-19-6.48C72.45,25.13,61.74,29.9,61.74,43c0,12.6,10.08,14.67,18.54,16.2,6.48,1.17,12.06,2.61,12.06,9.09,0,5.94-4.59,6.84-10.89,6.84a17.12,17.12,0,0,1-8.91-2.25l.09-7.11L63,64.82,61.2,79.31c4.59,4,13.23,6.12,21.15,6.12,14.22,0,23-6.57,23-18.63C105.3,51.86,92,50.42,84.78,48.89Z" transform="translate(-2.16 -2)"/><path d="M134.91,48.89c-5.31-1.17-10.08-2.52-10.08-7.47,0-4.23,3.6-5.67,8.37-5.67a15.42,15.42,0,0,1,9,2.61L143,45.2l9.63-.9-.54-12.69c-3.78-4-11.34-6.48-19-6.48-10.53,0-21.24,4.77-21.24,17.82,0,12.6,10.08,14.67,18.54,16.2,6.48,1.17,12.06,2.61,12.06,9.09,0,5.94-4.59,6.84-10.89,6.84a17.12,17.12,0,0,1-8.91-2.25l.09-7.11-9.63-.9-1.8,14.49c4.59,4,13.23,6.12,21.15,6.12,14.22,0,23-6.57,23-18.63C155.43,51.86,142.11,50.42,134.91,48.89Z" transform="translate(-2.16 -2)"/><path d="M186,36.29h-5.94V52.67h5.76c9.18,0,12-3.06,12-8.64C197.82,38.18,194.85,36.29,186,36.29Z" transform="translate(-2.16 -2)"/><path d="M237.87,51.41c-4.77,0-7.38,3.42-8.1,8.46H245C245.52,55.82,243.36,51.41,237.87,51.41Z" transform="translate(-2.16 -2)"/><path d="M359.91,51.41c-4.78,0-7.38,3.42-8.1,8.46H367C367.55,55.82,365.39,51.41,359.91,51.41Z" transform="translate(-2.16 -2)"/><path d="M404.63,52.31c-5.13,0-9.72,3.69-9.72,12,0,7.74,4.14,12,9.09,12,6.12,0,9.9-6.21,9.9-12.24V63C413.9,56.27,409.94,52.31,404.63,52.31Z" transform="translate(-2.16 -2)"/><path d="M433.16,2H157.32V103.7H441.26v-9h6.48L451,85.16,436.76,52.67h-3.6V43.94h20.16v8.73h-4.05l8.28,18.72h.54l6.12-18.72H460.7V43.94h18.54v8.73h-4l-13,31.86L458.36,94.7h5.31v9h17.1V2ZM214.56,84.53H199.62L188,62.21h-7.92V74.27h6.3V84.53H161.73V74.27H168v-38h-6.3V26h26.46c14.49,0,22.59,5.94,22.59,17.73,0,7.92-4.5,13.32-11.16,15.93l7.92,14.58h7Zm23.85.9c-12.06,0-20.88-6.84-20.88-20.43,0-12.51,7.47-21.87,20.34-21.87,11.25,0,18.89,7.11,19.08,17.64a28.28,28.28,0,0,1-.63,5.85H229.68c.63,6.3,3.69,9.63,9.54,9.63,6.21,0,7.92-3.87,8.36-6.3l9.72,1.8C256.76,79,250.11,85.43,238.41,85.43Zm98.18-.9h-17V61.67c0-7-2.34-9.72-6.93-9.72-5.57,0-7.82,4-7.82,9.63V75.8h5.39v8.73h-17V61.67c0-7-2.34-9.72-6.93-9.72-5.58,0-7.83,4-7.83,9.63V75.8h7.74v8.73H261.45V75.8h5.4v-23h-5.31V43.94h16.92v6.12c2.43-4.32,6.66-6.93,12.33-6.93,5.85,0,11.25,2.79,13.22,8.73a13.61,13.61,0,0,1,13.23-8.73c7.29,0,13.95,4.41,13.95,14V75.8h5.4Zm23.86.9c-12.06,0-20.88-6.84-20.88-20.43,0-12.51,7.47-21.87,20.34-21.87,11.24,0,18.89,7.11,19.07,17.64a27.61,27.61,0,0,1-.63,5.85H351.71c.63,6.3,3.7,9.63,9.54,9.63,6.21,0,7.92-3.87,8.37-6.3l9.72,1.8C378.8,79,372.14,85.43,360.45,85.43Zm70.46-.9h-17V77c-2.34,4.68-6.48,8.46-13.86,8.46-10.62,0-17.19-7.83-17.19-20.43,0-12.06,5.94-21.87,18.09-21.87,6.66,0,10.71,2.88,13,7V31.43h-8.1V22.61h19.71V75.8h5.4Z" transform="translate(-2.16 -2)"/>
</svg>
