<svg
  data-logo="sass"
  xmlns="http://www.w3.org/2000/svg"
  aria-hidden="true"
  focusable="false"
  width="520"
  height="390"
  viewBox="0 0 258 193.53"
>
  <path d="M223.31,112.22a53.47,53.47,0,0,0-23.37,5.44c-2.4-4.75-4.81-9-5.21-12.14-.45-3.6-1-5.84-.45-10.19s3.09-10.53,3.09-11-.57-2.69-5.73-2.75-9.67,1-10.19,2.35a60.67,60.67,0,0,0-2.18,7.67c-.91,4.69-10.36,21.53-15.8,30.34-1.72-3.43-3.26-6.47-3.61-8.87-.45-3.61-1-5.84-.45-10.19s3.09-10.54,3.09-11-.57-2.7-5.73-2.75-9.67,1-10.19,2.34-1.09,4.58-2.17,7.68-13.69,31.2-17,38.47c-1.72,3.73-3.15,6.7-4.18,8.71h0a3.69,3.69,0,0,0-.17.4l-1.44,2.69v.06c-.68,1.26-1.48,2.46-1.83,2.46s-.8-3.38.12-8c1.89-9.73,6.35-24.91,6.29-25.48,0-.28.86-2.92-2.92-4.29s-5,.91-5.32.91-.57.81-.57.81,4.12-17.07-7.85-17.07c-7.44,0-17.75,8.13-22.79,15.52-3.2,1.72-10,5.44-17.34,9.45-2.81,1.54-5.67,3.09-8.36,4.58a6,6,0,0,1-.58-.63c-14.43-15.4-41.11-26.28-40-47,.4-7.56,3-27.31,51.24-51.36,39.68-19.58,71.29-14.14,76.73-2.12,7.84,17.18-16.95,49-57.95,53.65C75,82.62,66.71,76.61,64.65,74.37s-2.52-2.51-3.32-2c-1.32.69-.46,2.81,0,4.07,1.2,3.2,6.24,8.87,14.77,11.62,7.56,2.46,25.88,3.84,48.09-4.75C149,73.69,168.45,47,162.73,24.56,157,1.83,119.33-5.67,83.66,7,62.47,14.6,39.45,26.45,22.91,41.91,3.27,60.29.12,76.26,1.43,83,6,106.72,38.77,122.18,51.88,133.64c-.69.4-1.26.68-1.78,1-6.52,3.26-31.55,16.32-37.73,30.12-7,15.63,1.15,26.85,6.53,28.4,16.83,4.63,34.12-3.73,43.4-17.58s8.13-31.89,3.89-40.14c-.06-.11-.11-.17-.17-.29,1.72-1,3.44-2,5.15-3,3.32-2,6.65-3.84,9.45-5.33a60.93,60.93,0,0,0-3.32,17.18c-.69,8.88,2.92,20.39,7.67,24.91a8.4,8.4,0,0,0,6.24,2c5.56,0,8.08-4.64,10.82-10.07,3.27-6.59,6.36-14.38,6.36-14.38s-3.84,21,6.53,21c3.78,0,7.61-4.93,9.27-7.39v.06a1.92,1.92,0,0,0,.29-.46c.4-.63.63-1,.63-1v-.12c1.49-2.63,4.92-8.64,10-18.55,6.53-12.82,12.77-28.86,12.77-28.86a81.85,81.85,0,0,0,2.52,10.42c1.14,3.84,3.49,8,5.38,12.09-1.49,2.11-2.46,3.32-2.46,3.32l.06,0c-1.21,1.61-2.52,3.32-4,5-5.15,6.13-11.28,13.17-12.14,15.18-1,2.4-.74,4.12,1.15,5.55,1.37,1,3.83,1.2,6.29,1a29.3,29.3,0,0,0,9.45-2.18,31.91,31.91,0,0,0,8.13-4.29,18.29,18.29,0,0,0,7.85-16.09,32,32,0,0,0-3-11.34c.46-.68.91-1.31,1.37-2a216.61,216.61,0,0,0,14.15-24.39,83.1,83.1,0,0,0,2.51,10.42c.92,3.32,2.87,6.87,4.59,10.36-7.51,6.07-12.14,13.17-13.75,17.75-3,8.59-.68,12.43,3.73,13.34,2,.4,4.8-.51,6.87-1.43a31.7,31.7,0,0,0,8.7-4.46c5-3.73,9.9-8.94,9.62-15.92a29.25,29.25,0,0,0-2.18-9.45c6.36-2.63,14.55-4.12,25-2.86,22.45,2.63,26.86,16.66,26,22.56s-5.56,9.1-7.1,10.07-2.06,1.32-2,2c.17,1,.92,1,2.29.8,1.83-.34,11.8-4.75,12.2-15.57C259.83,127.22,246.67,112.11,223.31,112.22Zm-173,58.35c-7.44,8.13-17.8,11.16-22.27,8.58-4.81-2.8-2.92-14.77,6.24-23.3a120.15,120.15,0,0,1,17.47-13c1.08-.69,2.69-1.61,4.63-2.81a4.09,4.09,0,0,0,.52-.29h0c.4-.22.74-.45,1.14-.68C61.27,151.27,58.06,162,50.27,170.57Zm54.17-36.88c-2.58,6.3-8,22.5-11.34,21.59-2.8-.75-4.58-13-.57-25.14,2-6.07,6.3-13.34,8.82-16.14,4.06-4.53,8.53-6,9.62-4.18C112.4,112.22,106,129.74,104.44,133.69Zm44.72,21.42c-1.09.57-2.12.91-2.58.68s.46-.91.46-.91,5.61-6,7.84-8.76c1.26-1.61,2.81-3.5,4.41-5.61v.63C159.29,148.29,152.31,153.16,149.16,155.11Zm34.52-7.85c-.8-.57-.68-2.46,2-8.36a31.62,31.62,0,0,1,7.67-9.9,13.21,13.21,0,0,1,.74,4.35C194.1,142.45,187.58,145.83,183.68,147.26Z" transform="translate(-1.17 -0.88)"/>
</svg>
