<svg
  data-face="miriam"
  xmlns="http://www.w3.org/2000/svg"
  aria-hidden="true"
  focusable="false"
  viewBox="0 0 500 500"
  width="250px"
  height="250px"
><path d="M425.71,405.16c-.64-.15-2.6-.61,0,0-8.34-2-16.17-6.38-24.11-9.54-8.84-3.51-18.72-5.17-27.17-8.86-13.51-5.9-25.56-15.47-37.95-23.33-4.94-3.14-14.5-5.13-14.45-11.08.06-6.64,10.07-17,12.83-23.57,7.28-17.3,11.4-37.53,13.55-56.12,4.52,3.25-2.11,24.77-3.35,31s-4.08,18.59-5.54,24.84c-.61,2.62-2.9,4.74-2.78,6.6.23,3.82,5.58,9.73,9.29,12.07,2.41,1.53,14.94-20,14-23.27-2.94-10.38-4.62-33.38-4.1-48,.15-4.1,7.61-4.25,8.45-18.46.7-11.73,1.34-27.46,11.7-32.5,12.51-6.08,12.44-11.81,21.43-15.37,3.92-1.54,11.65-.77,15.21-1.06,9-.75.51-9.28-5.66-15.49-4-4-10.17-11.39-7.91-14.7,2.66-3.9,9.76,1.27,8.69-6.2-.67-4.68-13-15.75-15.73-20.91-14.73-27.51-15.94-59.41-28.06-87.65C354.32,40.88,328.53,16,302.31,15.2c-6.74-.2-13.53,2.32-19.84,3.48-7.17,1.32-14.82-2.79-18-4.1a105.31,105.31,0,0,0-55.12-7.31c-30.92,4.49-57.88,23.37-76,48.35C116.89,78.3,105.2,108.24,94.5,134.16c-8.76,21.22-17.3,53-11.92,75.58,1.7,7.12,6.93,13.12,8.24,19.94,1,5.11,0,10.89.63,16.13,1.84,16.37,12.22,28.4,13.8,44.61.54,5.59-.16,23.32,6.24,17.27,11.25-10.62,6-43,17.77-53.66-.43,7.28,2.42,12.86,2.83,19.21.47,7.14-5.22,30.09-7.43,36.3-.8,2.27-1.66,2.67-1.47,4.21.73,5.95,7.1,15.36,9,18.35,1.37,2.15,11.95-6.9,11.74-9-.68-6.67-11.18-46.81-4-50.61,3,13.44,3.46,27.19,5.71,40.75a87.79,87.79,0,0,0,4.76,18.26c.82,2.07,7.66,12.5,7.23,13.89-1.36,4.4-14.74,5.5-20,7-9.67,2.79-19,7.64-28.66,10.16-5.72,1.49-56.15,14.79-53.15,21.44,1.37,3,35-9.34,40.33-10.51-2.52,20.64,8.21,37.24,8.08,58.09-.1,15.37-5,31.22.52,45.84.57,1.51,8.62,13.42,9.58,6.07.75-5.79-4-16.64-4.68-22.66-2.93-26.53-1-53.92-1.9-80.63-.38-12-.47-12.6,10.91-16.92,12.19-4.63,25.7-5.87,38.74-7.34-.9,9-2.32,14.61-4.86,23.29-.57,2-10.23,12-5.46,12.34,8.19.51,18.24-33.07,18.7-38.24,10.35,12.57,18.3,20.37,29.25,32.37,9.7,10.64,18.65,17.71,33.35,20.09,33,5.34,60.92-20.45,86.09-45.24,0,3.41,8.18,36.15,14.44,33.14,1.89-.9-6.37-25.06-6.37-29.31,9.36,3.83,16.65,6.38,25,11.85,8.64,5.63,21,9,27.88,16.93,8.79,10.1,1.62,23.36-.95,34.71-3,13.21-3.61,26.82-7,40-.92,3.59-10.61,25.25-8.13,26.64,4.72,2.62,14.35-21.09,15.19-24.32,3.47-13.3,1.15-28.07,4.17-41.41,2.46-10.82,16-22.42,8.91-32.92,11.36,2.64,15.51,5.16,26.25,9.51.95.38,9.6,4.62,10.92,3.94S429.51,406.07,425.71,405.16ZM352.64,283c-.49,18.66,3.6,38.55,2.37,40.64-1.35,2.29-9.5,4.63-12.1,6.24C345.84,319.38,351.9,286.61,352.64,283ZM356.91,327a112.36,112.36,0,0,1-10.32,15.93c-.34-.45-4.18-5.64-5.72-7.47C345,332.47,352.42,329.33,356.91,327ZM119.37,254.67c-1.72,10.72-4.66,41.21-7.91,30.84-2.72-8.68-13.11-24.87-14-45.44-.38-8.79.53-15.24-3.32-23.24-5.26-10.94-8.5-20.41-7-32.2,5-39.78,22.62-71.53,40.2-107.22C148.14,35.14,193.1,6.22,240.87,15c10.69,2,24.42,1.68,32.8,9.09,2.12,1.87-.16,8.18,5.49,6.17.68-.24,6.46-5.32,8.1-6.33,17.79-10.89,38.85,5.07,52,16.31,39.95,34.1,25.28,102.37,58.88,126.85,10.75,7.83-27.62,2,4.73,30.37,6.36,5.58-5.32,3.58-11.21,7.73-5.19,3.67-10.17,14.84-18,10.06-4.15-2.53-2.91-7-8.67-8.32-6.65-1.54-6.6,9.49-9.75,5.9-5.25-6,1.16-9.28-.65-19.42-1.16-6.5-5.65-10.72-9.36-15.95-10.76-15.18-6-35.89-13-52.57-4.44-10.64-20.82-25-25.84-35.48C304.33,85,303.51,99.9,302,102.23c-2.07,3.19-5.13,5.78-8,8.14-5.61,4.56-12,8.31-18.2,11.94-32.32,18.83-76.15,11.47-97.91,46-17.91,28.41-6.58,64.86-11.29,73.39-2.52,4.58-1.5-4-3-12.38-1.4-8-2.32-20.3-2.83-28.38-.49-7.76-2-13.17-6.07-3.37-5.24,12.65-3.76,25.59-12.08,37.18C135.37,244.84,122,238.07,119.37,254.67Zm69.22-29.56h0c5.32-.9,9.48-7.52,6.71-12.07a2.7,2.7,0,0,0-.45-.53l2.92-.15c5.49,1.15,12,9.69,9.08,10.27-6.77,1.36-11.44,3.54-18.23,4.06-3.5.27-9.55-.1-12.49-1.75-5.6-3.14-4.47-4.29-4.5-11.53h7.17a3,3,0,0,0-.47.9C176.56,220,182.31,226.18,188.59,225.11ZM133,328.87c-2-2.38-4.56-8.52-6.18-13a48,48,0,0,1,13.22,7.21C138.52,325.27,135.13,327.25,133,328.87Zm7.14-9.82c-3.1-1.87-9.79-5.58-13.25-6.7.72-5.82,5.87-25.52,7.95-35.52C135.66,288.4,138,307.63,140.18,319.05Zm158.11,48.6c-17.74,14-41.09,36.53-65.29,34.41-20.58-1.8-27.79-15.27-41.22-28.95-18.41-18.76-37.82-34.67-42.08-61.62-2-12.47-.23-24.81-2.83-37.19-.49-2.3-1.73-18.44-6.1-17.33-3.92,1-.23,10.18-2.75,11.65-.07-1.36-1.54-7.2-3.9-3.75-.82-3.43-1.89-11.16-.26-14.26s8.68-5.83,11.18-8.79c7.7-9.11,12.49-31.4,13.6-19.93.74,7.68,2.93,21.8,2.23,32.93-.38,5.89-2.23,31.2,5.56,14,5.9-13,5.83-26.67,5.51-40.65,7.54,2.58,49.17,2.83,39.68-10.41.92,1.06,5.56,2.6,4.64-.39-1.18-3.8-5.38-6.65-8.76-8.06-10-4.21-25-.18-35.84-.19.14-6.46,3.58-8.75,13.38-6.94,6,1.11,9.07,3.4,15.05,2.38,4.45-.77,5.36-3.68,8.56,1.13,1.48,2.23,1.73,4,4.93,4.16,6.28.25-2.24-12.42-7.06-12.8a24,24,0,0,0-9.18,2.42,8.42,8.42,0,0,1-8.08-.36c-6.19-3.56-9.47-5.34-16.35-2,12.52-71.38,100.28-40.5,134.55-89.35,13,14.35,20.64,20.9,23.51,40.89,2.14,14.85,5.09,23.43,12.8,35.87a33.39,33.39,0,0,1,5.08,18.52c0,4.8-5,23.58-.1,27.11,7.78,5.61,9.82-17.7,15.56-16.66,6.88,1.25.72,16.74-.86,21.63-2.88,8.91-.21,24.42-5.93,31.5-2.11-5.34-5.36,1.6-5.76,3-5.31-1.88,4.57-32.93-3.83-19.7-6.65,10.49-5,32.42-7.9,44.72C332.37,327.06,308.9,359.3,298.29,367.65Z"/><path d="M332.18,216.56c7.48,0-9.06-13.42-10.19-14.12a39.16,39.16,0,0,0-24.76-5.39c-8.19.81-14.57,4.63-22.28,3.67-5.72-.7-11.65-5.84-17.44-.07-1.73,1.73-3.29,7.32-1.85,9.2,2.86,3.74,6.36-4.06,8.34-4.81,2.91-1.12,8.91,2.64,12.95,2.44,2.43-.13,7.16-3,9.29-3.64a43.45,43.45,0,0,1,26.62-.06C318.89,205.77,327.75,216.56,332.18,216.56Z"/><path d="M226.39,235.68c2.66-6-.55-16.15-2.63-14.36-1.67,1.43,1.09,6.69-.65,13.87-.57,2.31-2,10.79.55,13.68S223.72,241.74,226.39,235.68Z"/><path d="M320.72,219.11c-14.41,0-23.62-13.22-39.39-10.36-5,.91-13.18,3.35-16.55,7.34-1.09,1.29-6.74,7.64,1.46,4.19-9.82,10,28.41,14.68,34.59,13.46,7.08-1.39,11.36-7.41,14.67-8.33C316.87,225,328.27,219.11,320.72,219.11Zm-25.91,10.66c-7.81-.15-16.61-.53-23.45-4.44-3.77-2.15,3.69-11,9.82-12.16.46-.1.91-.17,1.36-.25a4.34,4.34,0,0,0-1.6,1.24C271.42,228,306.56,232.69,299,216a4.44,4.44,0,0,0-1.54-1.72c.57.18,1.14.35,1.74.56s1.82.71,1.78.69c2.64,1.38,5.84,3.65,9.1,5.36C316.37,224.16,297,229.82,294.81,229.77Z"/><path d="M278.11,322.91c-2.09-1.7-5.38,1.55-8.48,1.43-6-.24-13.13-3.09-19.16-2.87-4.86.18-9.57,1.77-13.82,1.78s-9.5-1.79-13.82-2c-5.68-.32-10.77,3.23-16.43,3-4.45-.18-6.56-4.41-10.82-2.09-5.73,3.13,2.89,2.14,3.52,2.48,2.8,1.52,5.21,10.19,7.59,12.94a19.71,19.71,0,0,0,8.19,6.09c8.1,3.47,16.34,3.85,24.9,3.95,6.48.07,14.25-.61,19.7-4.67,4.6-3.43,6.66-12,11.59-14.92C278.26,323.68,283.87,327.59,278.11,322.91Zm-40.53,4.83c3.64-.44,9.56-2.64,13.41-3,4.86-.47,8.57,1.7,13.3,2.61-16.69,6.91-35.2,5.34-55-.65,2.16-.39,9.44-1.61,11.6-2C225.55,324,230.18,328.63,237.58,327.74Zm16.63,13.56c-6.32,3-18.21,3.9-28.77,2.2-9.08-1.45-12.23-4.62-17.09-12.51,7.78,3.82,15.24,3.65,27.39,3.65,12,0,21.53.66,27-2-2.68,3.36-4.52,6.75-8.55,8.68Z"/><path d="M197.81,433.65c-.4-2.86-4.41-20.41-10.74-17-4.18,2.26,4.54,9.49,5.63,12.74,1.6,4.79.67,16.87,6.48,19.28s-1.12-13.24-1.37-15.05C197,427.57,198.41,438,197.81,433.65Z"/><path d="M280.53,422.51c-6.45,5.09-7.07,10.5-10.12,17.46-1.29,2.95-9.71,12.87-3.31,12.87,5.43,0,8.18-15.78,10-19.29.86-1.64,6.58-7.59,6.49-8.39-.14-1.16-.31-4.84-3.07-2.65C274.08,427.6,281.46,421.77,280.53,422.51Z"/><path d="M217.82,290.11c-2.09.95-1.86,3.58-1.07,5.37-8.14-2.93-7.72-8.45-6.69-14.48,1.35-7.92,5.52-3.33,4.89-8.17-.73-5.63-5.72-.2-7.12,5.16-2.18,8.35-3.1,17.4,7.51,20.58,3.32,1,6.79-1.22,9.43-.68,4.38.9,6.25,5.48,11.62,5.51,4.55,0,6.65-3.58,10.47-4.33,2.81-.56,5.65.18,8.91-.45,10.25-2,12-7.92,9.79-17.29-.74-3.18-5.62-16.45-7.41-9.38-1.08,4.25,3.21,2.79,4.65,10.73,1.17,6.47,1.54,11.64-6.09,12.62,4.85-5.36-5.6-4.87-7.36-4.22-3.69,1.36-3.87,6-10,7.44-11.46,2.78-13.24-10.32-21.54-8.41Z"/><path class="eyes" d="M286.66,222.41c.48.45,2.6,1.37,3.95.83,2-.8,2.52-1.84,3.71-3.53a4.21,4.21,0,0,0,.9-2.82,1.93,1.93,0,0,0-1-1.54,3.25,3.25,0,0,0-2.77.66c-.85,1.18.87,3-2.33,3.18-2.6.13-.05-4.1-1.42-4.72a2.24,2.24,0,0,0-2.89,1.44A6,6,0,0,0,286.66,222.41Z"/><path class="eyes" d="M185.28,220.69a4.21,4.21,0,0,0,3.52.44c1.65-.87,2-1.86,2.81-3.47a3.85,3.85,0,0,0,.45-2.61,1.85,1.85,0,0,0-1.09-1.31,2.68,2.68,0,0,0-2.33.81c-.59,1.14,1.12,2.66-1.64,3-2.25.32-.53-3.68-1.8-4.14a1.85,1.85,0,0,0-2.33,1.53A5.71,5.71,0,0,0,185.28,220.69Z"/></svg>
