<svg
  data-face="oddbird"
  xmlns="http://www.w3.org/2000/svg"
  aria-hidden="true"
  focusable="false"
  viewBox="0 0 2567 571"
  width="600px"
  height="134px"
><path d="M646.1,288.67c-10.88-7.22-4.28,7.05-3.76,5.27a6.27,6.27,0,0,1,1.57-3.18c2.59-2.08,8.06,7.82,6.21,14.06-.75,2.52-3.87,5.06-6,3.66-.76-.49-.24-1.67-1.28-2.22-2.13-1.13-7.25,9.15-10,10.49-5.35,2.57-8.55.94-13.54-1.29-.92-.41-22.74-12.12-20.91-2.14.31,1.7,12.14.34,14.23.87,5.8,1.47,8.17,7.23,15.13,7.19,6.79,0,13.59-10.1,15.74-10.39C657.14,309.14,654.8,294.44,646.1,288.67Z"/><path d="M632,265.74c-1.57,0-4.53-19-4.62-21.52-.1-2.87,5.66-25.43,10.92-20.17-.31-.3-8,16.14-8,19.79C630.38,246.56,636.17,265.74,632,265.74Z"/><path d="M631.63,223.71c-3.78,0-2.18-5.85-1.45-7.47,1.36-3,6.4-6.29,10.36-6.58,5.11-.37,3.79,6.37,7,3.56,2.72-2.37,1.87-8.74,10.67-3.91,6.34,3.48,5.76-4.84,14.5-5.3,2-.11,13.75,2.68,13.37,5.15-.08.5-10.5-1.7-11.65-1.44-8.78,2-10.76,9.18-19.92,5.87-2.57-.93-7.88,7.39-11.43,3.3-.72-.83-2.37,3.4-3.79,3.36-2.07-.07,1.5-4.18-2.33-4.83S635.08,223.71,631.63,223.71Z"/><path d="M591.28,228.73c-4,0,1.14-5.78-.33-5-13.79,6.89-7.07-7.79-15.15-1.47-4.71,3.67-4-3.09-16.77-6.18-6.57-1.59-16.29-3.54-23.09-3.82-3.68-.15-19.56,6-19,6.44-4.84-4.22,13.63-11.73,15.64-11.89,6.06-.47,16.07,4.43,22.07,4.86,11.78.83,11-1.35,18.38,4.7,3.27,2.66,4.08-8,8.86-5.07,3.23,2,1,7.63,3.94,8.46,2.14.6,15.66-14.2,10.73,2C596.22,222.79,593.6,228.73,591.28,228.73Z"/><path d="M717.93,198.73c3.47-8.28,4.16-19.27,3.16-28.09-2.06-18.3-11.09-33-18.15-49.78-3.17-7.52-1.93-17-7.22-23.32-3.72-4.45-14-6.28-16.32-11.57-3.94-9.09,3.48-16.4-5.48-25.29-6.15-6.11-23.32-5.87-30.56-3.43A97.24,97.24,0,0,0,644,45c-.62-9.51-4-17.2-12-22.83a60.86,60.86,0,0,0-48.86-9.86c-39.6,9-70.5,38.37-100.68,63.44-33.37,27.73-58.05,55.2-66,99.11-3.25,18.06-8.95,27.21-13.24,44.26-2,7.82,4.51,22.69,7.37,30.19,2.43,6.37,21.74,19.93,32.2,20.21,4.42.12-6.76-10.7-7.3-11.6-3-5-5-11.47-3.78-17.34,3-14.57,8.43-15.89,20.44-20.28,7.58-2.77,16.35-3.05,20.52-1.45,3.37,1.3,1.53,2.34.8,9.36-6.67,8.08-24.26,12.45-20.24,17.11,6.86,8-4,29.77,5.77,33.31,4.15,1.51-4.45,2.83-3.45,8.2.27,1.49,4.88,5.74,5.07,6.75,0,.15.39.43-1.88,2.48-1.33,1.2-2.56-.88-3-2.2-1.65-5-3.28-7.79-3.71-9.62-1.93-8.3-2.07-17.29-3.24-25.73-.8-5.82-3.78-15.73-1.17-21.68,1.22-2.79,5.81-4.82,5.81-5.79,0-6.21-9.2-1.29-9.94.32-2.81,6.08.95,18,1.78,24.3.8,6.09,2.46,47.34,13.05,47.34a25.62,25.62,0,0,0,3.5-.57c.14,1,.27,1.8.35,2.29.78,4.46,4.55,15.48,5.63,20.2,3.64,15.84,14.34,20.1,25.87,21.35,6.92,14,16.36,25.6,29,36.34,6.51,5.55,37.28,29.48,44.59,32a50,50,0,0,0,5.31,12.79c8,14.39,22.26,27.08,39.64,27.08,32.63,0,67.31-31.19,53.75-64-.5-1.22-3-9.85-1.55-11.06,9.46-8,16.24-24.57,18.74-30.49a135.16,135.16,0,0,0,6.38-19.21,5,5,0,0,0,.71,0c11.62,0,18.8-37,18.49-43.62-.19-4.06-9.37-45.3-6.08-53.75C705.37,225.38,716.07,203.17,717.93,198.73Zm-230,140.58c-5.19-1.57-10.41-7.89-11.62-9.29-4-4.63-9.19-20.08-9.87-25.82-.54-4.52-.1-8.66-.75-12.58-.3-1.86-3.55-1.45-3.46-4.46.22-7.52,13.59-13.29-1.65-12.92.46-1.89,5.06-15.33-1.59-24.48-5.07-7,14-17,12.89-5.28-1.77,18.15-.81,22.69-.57,25,2.26,21.29,9.74,42.92,16.72,63.11C489.32,336.28,491.51,340.4,487.94,339.31Zm175.29,77.57c-8.29,18.94-22.22,29.57-44.06,32.51-19,2.57-33.78-7.9-42.74-24.12-5.84-10.56-8.24-18.73.52-28.59,6.85-7.69,12.14-13.5,19.15-23.42,2.46-3.47,12.17-2.23,17.75-1.76,4,.33,15.08,5.21,15.26-1.61,3.32,1.4,17.62,8.39,22.94.94C655.4,366.14,669.84,401.77,663.23,416.88ZM703.09,286.8c.28,8.2-3.29,22.95-6.45,30.57-.37.91-3.35,3.67-5.69,6.35,1.17-5.47,2.08-11,2.79-16.54,3.61-28.36,1.9-57.2,1.19-85.69-.78-31.15-4-61.79-16.57-90.62-4.4-10.06-7.21-23.82-14.12-32.4-2-2.56-26.61-17.49-26.61-9.57,0-1.76,21.54,13.74,24.1,17.28,5.78,8,8.78,19.23,12.69,28.27,12.73,29.38,15.33,58.43,16.14,90.07.72,28.22,2.79,56.75-1.14,84.81-2,14.58-4.58,29.08-10.83,42.46-2.09,4.47-8.35,21.07-14,21.44-6.47.42-8.55-7.6-13.8-8.18-6.27-.7-.91,3.78-4.28,4.2-7.88,1-12.43-3.43-18.74-5-3-.73-2.7,5.29-3.36,5.38-7.11,1-20.66-5-29.58.62-5.92,3.74-5.15,9.18-12.37,14.81-10.77,8.4-14.71,12.75-15.82,19.82-.92,5.83-15.06-4.4-16.38-5.32-8.67-6.07-16.35-14.18-24.42-21-15-12.74-24.94-24.73-31.74-43.27-7.65-20.88-16.5-43.94-18.83-66.12-.6-5.75,6.07-56.13,7.5-58.68s36.1-11.87,50.72-25.45c23.36-21.7,27-55.06,42.51-81.44,7-11.89,16.86-21.06,31.15-22.1,4.64-.34,11.84.25,16.23,2,1.78.7,10.69,8.22,11,8.22,6.07,0-4.33-8.86-4.69-9.1-3.73-2.57-11.48-7.16-15.9-7.61-13.38-1.38-23.67,6.55-32.94,16.59-21.43,23.2-25.33,58.59-47.69,82.47-21.38,22.82-53,27.87-81.6,38.23-11,4-18.42,7.93-24.54,19-2.41,4.36-2.12,6.36-3.12,13.48-1.16,8.23-7.53-.54-8.39-2.1-4.46-8.17-8.51-14.57-5.89-23.67,4.76-16.56,9.81-25.81,13-43.64,7.27-40.38,25.75-64.55,56.7-90.28,31.21-25.95,60.39-56.14,101.31-65.76,14.72-3.46,30.25-2.53,43.9,5.16,8.23,4.63,12.67,8.82,14.07,18.2.42,2.84-.33,25.07,1.06,25.35s2.34-2.5,3-6.22c6.62,1.72,23.77,0,28.73,5.42,5.83,6.33.61,14.21,3.87,21.79,2.48,5.81,10.45,6.26,14.47,11.05,5.15,6.14,6.18,16.43,9.25,23.71,7.47,17.74,16.87,34.15,17.65,53.79.36,9,.17,18.16-4.56,25.93-1.38,2.26-14.09,22-14,25.3C698.23,241.83,703,283.44,703.09,286.8Z"/><path d="M627.27,432.35c1.21,0,9.39-23.34,8.23-27.69-5.72,6.75-9.74,13.39-12,2.57-1.37,2-13.43,20.26-16.29,16.43,2.55,3.42,7.36-34.39,3.87-31.7,5.24-4,5,19.44,4.48,21.36,5-6.44,8.86-17.51,11.4-4.05,2.26-2.17,5.54-7.88,8.22-9.21C638.56,398.38,639.81,432.35,627.27,432.35Z"/><path d="M648.86,313c-.21,5.33,26.42,5.45,27.8,17.92,1,9.12-4,1.71-8.66,5.88-7.27,6.58-12.12,5.2-15.58.35-1.79-2.51-7.18-8.74-4.34.38-1.82-.37-23.09-.54-29.89,3.08-8,1.54-19.89,4.53-20.81,4.74-14.65,3.41-20.92,3.56-26.54,13.67-.57,1-5.25-3.06-6.72-3-1.7.06-4.61,2.3-6,3.87-2.1,2.36-3.16,7.9-6.39,8.3-9.1,1.13,6.89-13.29.91-18.41-5.11-4.38-19,6.36-19.53-.56-.25-3.2,17.84-13.12,26.93-20.87.19,0,13.07-.89,16.32.54s10.19-5.74,11.42-3.18c1.93,4.06,8.32-2.86,12.25-5.86h0l.06,0c.32,0,.65,0,1,0h.06c1.17,0,13.45-.12,13.18-2.85,0-.45-18.55-.87-21.57-2.91-9.46-6.38-.3-11.83-3.19-14.71-4.57-4.56-5.29,9.27-4.75,10.85,1.43,4.12,5.93,7.16,10.48,8.63-2.12,2-4.63,3.89-6.88,2.25a7.45,7.45,0,0,0-9,.4c-1.82,1.36-12.09,1.68-15.5,1.5-5.54-.29-32.5,19.95-34.3,25.56-3.79,11.77,14.77,1.44,17.91,7.69,1.6,3.18-7.2,16.59,3.65,16.59,2.31,0,8.69-9.71,11.48-10.91,3.35-1.45,3.09,4.7,7.3,3.4,2-.62,5.42-8.35,7.1-9.83,6.83-6,19.78-7.75,28.43-10,1.27-.33,14.6-.57,18.76-3.57a167.67,167.67,0,0,1,21-1.68c-5.5,2.07-14.66,6.5-16.43,6.9-4.4,1-21.73.22-21.73,2.11,0,3,18.69-.28,21.78.79,2.71.95,9.41-3.12,17.37-7.07-2.21,3.54-4.68,8.72-5.84,9.83-4.83,4.59-13.94,6.24-20.4,7.32-4.39.73-26.76-7.12-28.33-7.26-6.33-.55,20,10.54,23.66,10.54,8.09,0,17.25-.83,24-5.76,1.76-1.29,11.27-12.2,11.24-16.48l.27,0A23.2,23.2,0,0,0,655,344c2.23,1.35,1.24,2.69,4.73,2.69,3.3,0,5.81-5,8.31-5.8,4-1.28,5.45,1.12,9.7-.69-.2.08,4.41-6.62,4.27-5.54C683.74,320.6,649.1,307.11,648.86,313Z"/><path d="M577.67,242.94c.36.05,2.21-.44,2.56-.44,3.3,0-15.27-10.11-20-11-6.35-1.13-32.15-1.34-37.74,7.36-1.47,2.29,4.28-.71,10.61-1.54-2.86,2.84-7.68,9.71-5.28,10.76,4.38,1.92,20.33,7.77,25.19,7.77,6.37,0,26.73-1.86,26.6-10.47C579.57,245,578.83,244.06,577.67,242.94Zm-33.92-6.76c-3.87,6.93-3.53,11.43-1.14,14-4.71-1.66-8.43-.79-9.58-4.61C532.66,244.36,538.88,236,543.75,236.18Zm12.39,16.22c4.28-2,9.31-7.65,5.54-16,1.54.57,3.1,1.28,4.66,2,3.27,3.07,6.88,7,6.91,7.93C573.33,248.87,565,253.45,556.14,252.4Z"/><path d="M654.63,228.17c-4.83,1.36-11.06,3.6-14.49,7.65-.54.64-8.24,10.16-3.18,10.16.42,0,.21-2.81,3.06-2.33,1.62.28,1.42.8,1.75,1.21,2.17,2.77,11.77,3.37,12.86,3.37,1.39,0,20.49-2.13,23.36-9.76.84-2.24-6.18-8.28-3.1-8s7.88,4,6.83,1.06C678.71,222.91,656.91,227.52,654.63,228.17Zm-11.12,10a16.41,16.41,0,0,1,2.43-2.59c.36-.26.74-.49,1.13-.72-.25,4.25,2.59,8.43,6.31,10.29a17.07,17.07,0,0,1-7.92-1.53C643.3,242.6,643.53,240.05,643.51,238.16Zm29.13.77c-1.6,2.77-4,3.46-8,4.32,2.37-2.56,2-8.82.61-11.85C666.25,231.39,676.15,232.9,672.64,238.93Z"/><path d="M483.68,396.42c-4.18,0,4.55-17.82,4.9-20.22.52-3.55-4.69-26.3-1.38-26.3C493.09,349.9,492.79,396.42,483.68,396.42Z"/><path d="M622.23,455.26c1.52,3-34.48,6.69-38.88,5.79-15-3.09-30.53-8.67-44.47-14.83-17.37-7.68-31.49-20.51-46.32-32.21-4.65-3.66-12.37-6.79-14.16-12.88-.71-2.41,1.57-11.19,1.85-14.52,3.06-2.66,4.78-4.76,3.67-5.5-2.61-1.75-31.63,22.94-35.22,26.37-9.43,9-22.13,13.42-34.07,18.74a246.54,246.54,0,0,0-41.53,23.85c-7.6,5.28-12.37,12-20.14,17-.31.2-17.38,10.33-11.53,10.33,10.66,0,30.29-19.73,39-25.76a252.49,252.49,0,0,1,41.77-23.2c13.66-6.08,21.31-8.95,32.3-18.68a91.18,91.18,0,0,1,13.29-8.46c4.75-2.46,5.33,1.49,5.66,2.65,1.42,4.93,8,6.64,11.6,9.87,10.13,9,22.33,19.73,33.73,27,19.91,12.65,51.38,28.74,75.89,28.74C597.78,469.55,624.62,460,622.23,455.26Z"/><path d="M603.3,496.79c-28,0-59-16.18-82-30.86-5.12-3.26-60.17-47.52-53-52.33-.6.4,36.44,35,40.87,38.34a226,226,0,0,0,56.95,31c15.36,5.74,33.63,10.94,49.8,4.36,7.09-2.89,13.06-5.91,18.07-11.6,2-2.21,11.19-16.39,11.84-16.39,6.84,0-10.4,22.18-11.14,22.9C626,490.73,616,496.79,603.3,496.79Z"/><path d="M748.15,450.18c-7.94,0-4.1-28.57-17.8-36.52-7.51-4.36-60.59-27.33-60.59-24,0-4.35,32.88,2.08,35.83,2.87,12.22,3.26,24.52,8.23,32.4,18.54,7.38,9.64,5.7,23.17,10,34.35C748.64,447.23,750.56,450.18,748.15,450.18Z"/><path class="eyes" d="M655.91,241.87a6.24,6.24,0,0,0,4-1.14c1.1-1.21,1-2.18,1.12-3.84a3.76,3.76,0,0,0-.59-2.46,2.05,2.05,0,0,0-1.44-.89c-.57,0-1.68.77-1.72,1.33-.09,1.17,2,2.09-.28,3.16-1.83.87-1.85-3.17-3.12-3.26a1.52,1.52,0,0,0-1.46,2C652.79,238.75,653.71,241,655.91,241.87Z"/><path class="eyes" d="M549.56,247.83c.62.42,3.13,1.08,4.54.24,2.08-1.24,2.46-2.49,3.47-4.58a4.79,4.79,0,0,0,.5-3.3,2.21,2.21,0,0,0-1.44-1.54,3.64,3.64,0,0,0-3,1.21c-.72,1.47,1.52,3.22-2,4-2.88.6-.81-4.56-2.44-5a2.5,2.5,0,0,0-2.94,2.12C545.76,243.57,547.09,246.14,549.56,247.83Z"/><path d="M982.66,500.74c-5.21,0-11.35-3.49-14.71-6.61-2.2-2.05-12.31-8.3-12.91-11.15-1.14-5.44,7,.63,8.06,1.37,6.84,4.9,7,5.75,14.3,10.19,3.57,1.32,11.92-14.37,25.74-15.65,8.56-.79,17.11,2,25.63,1,2-.23,11.68.19,4.4,2.6-12,4-27.1-5.23-37.56,2.26C991.07,488,985.66,500.55,982.66,500.74Z"/><path d="M943.83,386.25c-4.18,0,4.43-2.91,4.93-3.55.2-.24,11.62-2,12.71-2.05C974.34,380.06,946,386.25,943.83,386.25Z"/><path d="M948.41,241.26c-6.89,0,9.41-11.5,11-12.09,4.78-1.76,28.43,1.92,33.94,4.27C998.68,235.7,976,232.2,973,232c-4.88-.33-9.12,1.12-13.59,3.08C956.83,236.22,951.18,241.26,948.41,241.26Z"/><path d="M852.24,268.74c-6.56,0,11.69-13.35,13.51-14.38,4.5-2.54,25.62-12.66,27.53-1.81.38,2.12-12.24-.37-16.26.94a59.31,59.31,0,0,0-14.4,7.51C860.16,262.66,855.06,268.74,852.24,268.74Z"/><path d="M988.78,248.42c-2-7.1-28-2.87-34.54,1.63-4.64,3.18-14.46,13.8-9.6,10.76,2.31-1.44,3.17.72,2.47,1.66-1,1.85,2.75,3.07,6.19,2.09,10.68-3,25.7-1,30-11.19a3.36,3.36,0,0,0-.11-2.14C987.94,251.26,989.72,251.78,988.78,248.42Zm-28.85,3.85c.33,5.37,3.52,7.43,6.88,7.42-4.74.61-12.47,1.25-15.67,1.83-.65-1.08.29-5.19,2.15-6.45C955.46,253.59,957.17,252.13,959.93,252.27Zm16,5a19.5,19.5,0,0,1-6.56,2.06c3.81-1.13,6.87-4.64,4.93-8.56,1.91.16,4.15.33,6.33.42C978.93,253.11,977,256.6,975.88,257.25Z"/><path d="M939.62,295c-2.37-4.72-3.7-12.55-7-19.19a50.88,50.88,0,0,1-4.71-17.95c-.37-2.44-1.8-1.84,4.58-6.41,4.82-3.45.28,4.47-.06,5.73-1.09,4,.4,10,2.55,15.18C938.59,280.94,944.13,303.94,939.62,295Z"/><path d="M901.54,268.31c3.06-.26,6.31-2.71,4.34-2.68-4.29,0-15.68-2.95-21.1-2-4.1.7-11.73,3.62-15.48,5.35-3.26,1.51-11.85,9.7-2.63,11.5,1.41.28,1-.09,3.09-1.95.88,4.19,3.78,4.75,11.61,3.25,5.15-1,18.55-3.17,25.08-9.37C907.77,271.14,904,269.07,901.54,268.31Zm-20.09,11.58c-10.46,1.32-6.59-.68-8.92-3.38,1-.89,6-5.19,6.81-5.6-3.72,16.79,20.32,3.7,11.7-2.74.92,0,2.74.16,4.8.23-.35.78.79,2.26,4.74,4.59C896,275.59,887.17,279.17,881.45,279.89Z"/><path d="M994.08,327.88a109.86,109.86,0,0,0-11.21,1.51c-5.35-.46-17.3,6.48-34,10.27-1.11.25-2.71,3.5-3.84,3.68-.84.14-3.81-1.33-4.73-1.2-10.81,1.52-24.45,5-32,9.43-4.94,2.9,1.19,2.44,3.18,3.87s5.56,2.14,6.88,4.29c.83,1,1.78,2.09,2.66,3,6.37,6.53,12.71,14,23.1,12.11,19.24-3.57,27.84-3.54,37-19.21,1.48-2.53,7.23-12,8.62-14.63C994.17,333.63,1003.62,326.86,994.08,327.88Zm-23.94,34.4c-6.3,5.29-17.42,8.25-25.25,8.73-4.6.28-9.14.64-13.3-2a16.69,16.69,0,0,1-4.78-5.39c4.65,1.95,8.86,3.43,10.24,3.43a71.75,71.75,0,0,0,39.19-12.41A20.17,20.17,0,0,1,970.14,362.28Zm-7.59-4.89c-7.45,2.23-18.15,6.45-26,5.68-8.8-.87-14.45-8.09-23.23-9.87-2.2-.84,19-2.87,28.09-4.07,8.41-1.11,16.19-4.24,23.91-7.44,8-3.32,18-9.53,27-9.34C983,342.33,976.27,353.29,962.55,357.39Z"/><path d="M1007.09,346.91c-3.7,8.6-2.79-16.72-.51-22.25,1.08-2.61.78-9.68-3.58-9.2-2.67.29-1-2.3,2.56-3.32,5.75-1.65,3.92,10.44,2.27,14.18S1008.51,340.17,1007.09,346.91Z"/><path d="M1149.84,451.05c-3.78-5-11.75-5.67-17.65-3.61-4.54-1.38-12.8-2.94-13.53-3.12-6.32-1.61-13.05-1.9-19.44-3.55s-30.57-11.66-40.13-11l.12-.23c.39-.69,3.26-2.24,4.13-3.61,1.14-1.79,1-5.47,1-7.57,0-8.69-3.71-16.16-2.89-25,1.6-17.17,9.39-34.95,11.49-52.16,2.16-17.79,4.52-36.93,3.56-54.85-3-56.16-43.87-102.39-75.3-146.55-7.39-10.37-15.87-21.08-27.11-27.48-1.74-1-20-13.28-24.8-10.7,1.64-30-38.85-28.77-60-21.24C819.68,105.13,785.67,190.83,764,253.85,751.7,289.41,734.53,331,741.29,369.28c1.84,10.4,13.13,20.64,16.53,30.47,3.35,9.65,3.69,19.35,2.61,29.44-.38,3.59-7.17,31.1-5.56,41.67a90,90,0,0,0-12.06,7.59c-1.09.84-8.26,6.19-5.35,8.71s3.85-2.79,5.61-4c8.16-5.56,17.18-8.92,26-13.28.79,3.75-4.36,20.69-2.19,20.69,5.67,0,8.77-19.65,5.55-23-2.44-2.53-8-1.17-13.74,1.41,1.83-12,11.32-38.32,11.66-42.37,1.93-23.35-17.76-39.21-20.05-61.35-4.41-42.84,13.34-87.46,27.27-127,11.28-32.05,22.49-64.73,42.22-92.75C839.15,118,868.44,90.15,903.36,86c12.48-1.5,34.19-1.45,40.93,11.85,3.26,6.45-2.38,13.93.16,19.76,2.79,6.4,1.35-2.88,14.36-2.89,5.15,0,13.62,4,17.79,7,10.56,7.55,19.35,15.51,26.5,26.16,32.31,48,67.13,93.6,66.32,154.28a382.06,382.06,0,0,1-4.18,49.87c-2.16,14.91-8.12,30.39-8.16,45.48,0,7.12,3.25,13.84,3.25,20.86,0,9.75-8.45.86-10.19,4.06-2.41,4.42,2,42,10.69,42,3.9,0-2.06-14.72-2.34-15.86-1.46-6-2-10.72-.92-15,3.44,1.39,9.73,2.27,10.7,2.63,6.52,2.38,13.91,3.71,20.6,5.74,10.47,3.18,26.63,8,38.25,8.51-6.11,5.67-8.77,16.34-12.81,23.31-9.67,16.69-24.57,26.71-40.68,36.61-19.32,11.86-39.29,23-60.84,30.28a161.94,161.94,0,0,1-32.36,7.52c-2.74.33-15.62-.5-17.09,1.06-.67.71-4.05,4,0,4,45.22,0,86.89-22.27,123.71-46.56,15.53-10.25,26.57-22.38,34.91-39,3.17-6.3,6.19-16.82,14.64-17.39C1137.74,450.21,1155.15,458,1149.84,451.05Z"/><path d="M901.18,383.42c14.5,14,30.7,35.59,52.92,35.59,18.64,0,33.15-15.38,44.11-28.69,2.59-3.15,13.58-14.09,13.74-3.78,0,3.73,5.15,32.64,7.15,24,.5-2.15.86-19.76.58-27.49-.12-3.24,1.83-22.91,5.44-28.63,4.62-7.34,6.15-12.49,7.14-21.15,1-8.47,1.89-15.23,2.11-23.71.05-2.14-.35-12.15-1.4-16,1.33-2.31,2.47-4.33,3-5.15,3.57-5.36,5.09-9.67,3.85-16.19-1.07-5.58-3-18.68-8.8-20-6.13-1.36-13.62-2-15-19.06-1.48-18.51-21.22-23.15-32.55-36.29-9.86-11.45-13.2-24.51-16.9-38.76-1.16-4.49,0-12.78-4.11-15.57-2.5-1.7-14.68-2.8-13.12,0,2.7,4.84,3.74,9.1-9.8,8-4.8-.38-9.28-1.55-14.1-1.09-9.66.94-17.88,6.08-26.84,9.33-14,5.11-30.18,4.44-43.17,12.5-14.62,9.06-23.34,26.67-24.38,42.89-1.33,20.82,9.5,37.27,16.57,56.26,1.85,5,11.66,65,13.09,68.1,5.12,10.88,15.78,25.8,23.92,33.94,3.58,4.23,3,26.63,3.26,29.63,1,9.77,3.24,20.7,5.53,30.94,3.22,14.37,12.31,24.69,20.28,36.91,8.52,13.05,17.4,25.73,23.28,40.26a131,131,0,0,1,7.32,25.3c.74,4,1.71,29.74,4.74,29.74,6.75,0-4.33-45.49-6.67-52-5.3-14.65-13.44-27.64-22-40.55-7.74-11.68-15.48-23.42-19.55-37a93.59,93.59,0,0,1-3.71-27.84c0-3.17,2.73-18.71,3-25.61ZM872.29,344c-1.18-2.29-6.54-13.34-8.35-18.37-5.08-14.12-10.84-51.85-12.56-56.46-8.07-21.65-15.6-40.06-11.31-63.77,2.9-16,11-25.19,26.76-30.82,7.71-2.75,18.71-2.7,26.64-4.52,9.15-2.1,17.39-8.71,26.17-11.8,9.77-3.43,13.53-4.41,23.46-2.76,1.75.29,12.23,2.12,17.24,1.1,1.71,4.91,4,10.82,5.44,15.51a75.73,75.73,0,0,0,10.85,22.67c9.14,12.75,25.08,20.1,31.88,34.5,2.44,5.18,4.87,41.32,6.37,41.32,3.08,0,3.7-5.82,3.32-12.74,3.56,1.49,10.66,2.34,12.51,4,3.35,3,5.93,10.78,5.75,15.21-.15,3.54-16.23,26.59-10.52,26.59.48,0,1.35-1,2.37-2.43-1.09,13.87-1.11,38.6-2.55,42.61-2.64,7.42-7.2,14-12.06,20.11-.56.71-5.55,6.32-7.06,9.92a117,117,0,0,0-9.08,10.9c-9.47,11.92-21.08,25.93-36.7,29.43-19.9,4.46-35.78-12.54-48.48-25.24C897.9,374.48,881.78,362.55,872.29,344Z"/><path d="M914.94,316.67c-3.23,13,5.7,15.1,10.77,14,7.85-1.66,13.07,6.68,20.33-.26,2.49-2.39,3.57-6,6.17-8.28S960,319,962.48,317c4.43-3.51,4.17-13.8-3-15.64-6.12-1.59-8.16,3.17-4.53,2,3.34-1,9,3.13,5.81,9.9-1.72,3.67-7.88,2.66-10.91,4.69-3.29,2.2-2.39,6.82-5.16,9.29-6.36,5.67-10.84-.55-17.91-1.6-2.76-.41-7.35,1.79-9.46-1.43C917.47,324.38,916.74,312.5,914.94,316.67Z"/><path class="eyes" d="M966.22,257.58a3.6,3.6,0,0,0,2.92-.31c1.26-1,1.42-1.82,1.94-3.23a3,3,0,0,0,.1-2.12,1.31,1.31,0,0,0-1-.82,2.54,2.54,0,0,0-1.82,1.06c-.37,1,1.18,1.87-1,2.69-1.8.67-.81-2.78-1.89-2.9a1.7,1.7,0,0,0-1.74,1.62A4,4,0,0,0,966.22,257.58Z"/><path class="eyes" d="M884.37,276.56c.44.27,2.45-.69,3.21-1.28a3.89,3.89,0,0,0,1.52-4.63,1.48,1.48,0,0,0-2.77-.11c-.24,1,1.4,2.1-.69,2.67-1.7.46-1.14-3-2.22-3.28s-1.55.66-1.53,1.48C881.94,273.19,882.6,275.5,884.37,276.56Z"/><path d="M1992.56,364.54c1-.93-22.5-14.21-24.58-15.49-23.45-14.42-27-3.19-33.34-2.45-6.11.7-13.89-5.06-21.34,5.43-1.81,2.55-9.47,15.14-9.67,15.19,5.42-1.51,11.44-12.74,17-15.87,8-4.44,11.31,1,17.33-1.66,5.15-2.27,13.43-7.85,30.89,5.15,1.36,1,19.44,9.4,15.87,9.43-1.3,0-12.41.76-16,1.93-9.4,3.09-16,7.83-26.56,8.11a30,30,0,0,1-16-4.37c-.92-.72,3.38-3.81,9.82-4.74,1.45-.2,3.9.33,5.12.25,2.58-.18,4.69-1.17,7-.73,9.07,1.68,11.27.32,11.27-.23,0-.34-10.92-4.08-11.61-4.26-2.47-.63-5.76,2.14-6.91,2.22-2,.16-4-2.22-8-1.21-1.26.33-10.18,5.78-15.49,5.25-2.44-.24-16.67,2.31-16.67,3.06,0,.28,3.06,1.28,3,1.3.54-.59,15.87,17.3,17.15,19.71,6.2,11.75,16.75,9.08,27,9.08,10.61,0,18.57-5.39,25.45-12.76C1975.63,384.56,1991.51,365.46,1992.56,364.54Zm-24.46,22.1c-6.56,6.72-13.19,7.62-22.9,7.61-8.71,0-16.42,2.3-20.23-4-2.72-4.51-13.61-15.71-15.28-17.34s8.15-1.52,8.79-1.26c6.88,2.8,13.69,7.67,22.92,7.67,11.61,0,18-7.27,28.46-9.84,4.51-1.1,10.92-2.08,13.19-1.57C1985.71,368.48,1970.23,384.44,1968.1,386.64Z"/><path d="M1916.05,332.62c1.3-.1,8.37-.86,8.25-2.08-.09-.89-7.43-.69-8.71-1-3.69-.91-6-5.5-7.43-8.71-3.23-7.46,1.31-12.49,5.76-21.18,3.4-6.63,4.92-14.27,6.64-21.59.67-2.83.79-17.87-1.81-18.29-.44-.07-.58,13.76-.92,15.8a78.66,78.66,0,0,1-6.74,20.21c-3.86,8-10,14.57-7.12,23.92C1905.5,324.67,1911,333,1916.05,332.62Z"/><path d="M1915.76,325.6c.42,1.82,1.51-.41,2.82-.55,3.29-.34,13.48,3.47,16.65,3.6s4.2-3.4,6.21-4.9a17.48,17.48,0,0,1,7.58-3.56c1.33-.3-.35.53-.31.79.16,1.19,9,.18,8.7-1.7-1-5.21-14.25-1-17.56,1.44-1.87,1.36-2.39,4.13-4.6,4.85C1928.74,327.69,1912.9,313.29,1915.76,325.6Z"/><path d="M1958.2,318c-.39.4,1.3,1.54,2.73,1.51a9.16,9.16,0,0,0,5.87-2.36,11.12,11.12,0,0,0,3-6.45,9.05,9.05,0,0,0-3-7c-.83-.71-1.3-.31-1.32.27s.16,0,1.2,1.41,1.23,2.93,1.41,5.29c.12,1.57-1.43,4.14-2.45,5.26a10.2,10.2,0,0,1-4.31,2.44C1960.13,318.53,1958.73,317.6,1958.2,318Z"/><path d="M1960,294.64c4.54,4.25,16,9.79,12.22,21.73-2.2,7-13.34,7.11-17.73,6.92-2-.08,2.38,1,5.26,1,7.57.14,12.33-1.39,14.24-4.42a15.44,15.44,0,0,0-.84-16.94c-2-2.92-9.47-6.9-12.43-10.56C1954.3,284.43,1958.63,293.32,1960,294.64Z"/><path d="M1898.24,204.85c-2.91,2.72-8.68,3-13.7,2-11.61-2.17-20.27,1.88-23.07,4.79-1.08,1.13-9.72,8.59-8.29,9.63.52.13,8.94-4.9,9.21-5.05,2.54-1.43,5.76-5.73,19.77-2.47,5.09,1.19,11-3.66,17.42-2.32,2.49.51,6.38,7.93,8.81,4.9C1911.8,212.11,1905.75,197.84,1898.24,204.85Z"/><path d="M2028.12,469a1.29,1.29,0,0,0-1-.85h0c-1.67-.31-5.56,3.47-6.41,4.31-2,0-3.21.25-4,1a4.67,4.67,0,0,0-1.26,3.4,6.69,6.69,0,0,0-3.75,2.08,3.94,3.94,0,0,0-3-.18c-1.16.49-1.85,1.75-2.51,3.5a20,20,0,0,0-6.9,4c-4-1.21-6.72-.44-9.47,2.63l-.75.07a16.32,16.32,0,0,0-6.16,1.43c-3.69-1.85-6-1.19-9,.79-3.79-1.11-5-1.18-8.71-.51-2.25-2.18-4.67-2.39-7-.6a15.24,15.24,0,0,0-7.38-1.86,5.48,5.48,0,0,0-5.38-1.36,15.18,15.18,0,0,0-5.61-1.74l-.75-.13c-2.19-2.57-3.72-4.26-8-4.09a56.91,56.91,0,0,0-8.29-5.86c-1.55-3.69-2.94-6.87-7.64-7.83a16.53,16.53,0,0,1-1.33-2.14,10.23,10.23,0,0,0-3.26-3.85c-.46-4-2-5.29-5.17-7a26.24,26.24,0,0,1-1.15-2.73,22.3,22.3,0,0,0-1.85-4c.72-2.57-.29-3.37-.62-3.55a1.28,1.28,0,0,0-1.56.23c-.62.59-.89,1.84.15,3.59-.85,3.31.35,5.91,3.55,7.74a14.89,14.89,0,0,0,4.85,6.67l0,.38c.3,3.68.43,5.38,5.26,6.32,2.08,2.88,3.92,5.38,7.22,7.43,2,4.63,4.92,6.7,9.17,6.48,2.44,1.86,4.23,3.21,7.63,3.89,2.27,2.6,3.82,3.5,7.09,2.25a8,8,0,0,0,5,1.16l.75.56c2.2,1.65,4.68,3.51,7.5,1.58a9.6,9.6,0,0,0,6.3.44c2.12,1.48,3.62,2.33,5.36,2.21a9,9,0,0,0,4.15-1.67c3.83,1.13,5.21,1.19,8.73-.71,3.67,1.84,5.37,1,7.85-1.84l.59-.05c2.85-.25,6.07-.53,8.35-2.27,2.18.67,3.76.72,4.94.15,1.53-.73,2.24-2.4,3-4.68a9.34,9.34,0,0,0,4.49-2.61c1.59.62,2.79.67,3.66.15a3.5,3.5,0,0,0,1.43-3c1.6-.58,2.79-2.06,3.85-3.37.15-.2.31-.39.46-.58l.86.07c1.54.14,3.14.29,4.43-1.09C2027.26,472.8,2028.57,470.3,2028.12,469Z"/><path d="M2198.57,258.76c-5.21-1.32,3.06-5.38,4.45-10.2,2-7-6.11.43-8.13-.14-3.82-1.08,2.05-11.29-.63-14.12a47.92,47.92,0,0,1-7-10.46c-1.35-1.83-6.7-3.42-8.46-5.74s3.24-10.63-1.45-15.66c-1.5-1.6-5.77,1.26-7.28-.61-2.56-3.16.5-5.25.61-8.17.35-9.17.27-9.3-9-10.6-5.76-.81-9.92-.92-8.95-8.37.61-4.68,5.86-6.81,3.07-11.71-1.74-3.07-15.61-1.38-16.19-10.08-.24-3.62-6.16-4.87-6.61-5.7-2.2-4.15.88-4.15.6-7.51-.95-11.6-5.42-4.07-12.8-7.33-3.53-1.55-4.24-5-5-8.22s-4.91-.68-7-.37-1-4-2.48-5.85-5.4-3.13-6.28-4.46c-1.3-2,1.12-4-.87-5.9-2.24-2.13-5.42-1.58-7.38-3.27-3.6-3.1,2-3.54.24-5.91-1.23-1.67-3.81-4.8-5.29-6.75-2.79-3.66,4.52-6.27,1.3-11.86-2.76-4.79-19.42-8.34-20-13.42s-8.17-7.54-12-7.64-6.66,0-9.31-2.33c-2.2-1.93-.39-3.51-1.68-6.35-3.66-8.05-14.93-9.44-21.89-6.64a9.68,9.68,0,0,1-5.43-3.16c-4.35-.38-8.39,2.1-12.62,1.65-3.29-.35-6.37-3-9.68-2.45a31.58,31.58,0,0,1-4.28,4.45,6.11,6.11,0,0,1-5.77-2.39c-6-1.38-10-4.52-15,2.13-11.36-12.08-22.6,1.44-30.72,9.82-3.24,3.35-12.2,10.4-13.24,15.16-.93,4.27,1.77,8.7,1.66,12.85s-3.31,10.6-2.18,14.83c1.39,5.23,2.79,3.15,7.1,7.14,3.4,3.16.37,10.73,3,13.89s10.87,1.92,8.55,3.61c-4.64,3.37,2.66,6.75,2.85,9.92.15,2.54-7.07,6.18-7.15,8.57-.17,4.53,7.47,4.06,8.31,6.5s-4.5,9.56,3,9.94c-6.52,5.37-2.52,17.55,5.26,12.54,5-3.19-9.69.29.39-7.84,9.16-7.39-2.9-4.81-3.81-10.57-.51-3.24,3.89-4,.52-7.28-5.78-5.59-3.9-7.54-2.24-9.62.75-.94-5.32-8.57-.39-13.22s-7.43-2.51-9.5-8.13c-1.09-2.94,3.51-4.37,1.82-8.6-2-5.08-8.77-2.16-11.84-6.26-2-2.61-1.22-9.6-.27-12.47.68-2.05,4.24-4.36,4.14-6.66-.15-3.32-2.9-2.67-3.76-5.3-.06-.2,5.59-8.37,6.34-9.19,1.88-2,5-2.66,7-4.77.93-1,2.39-5.59,3.18-6.63-.35.46,4.92-2.83,4.9-2.81,2.06-1.76.39-4.57,4.23-5.85,2.4-.8,12.85,4.63,14,3.05,3.61.49,5.33-3,9.45-2.21,2.35.46,4,2.88,6.34,3.46,5.89,1.48,10.9-4.24,16.46-1,4-.69,8.08-3.89,12.28-2.77,3.79,1,3.58,9.2,9.67,3.95,8.6-.18,10.41,1.11,14,8.51,4.66,9.75,12,6,17.52,8.23,3.84,1.52,3,4.17,4.76,7.73s15,5.53,17.86,11.1c2.6,5.08-5.83,10.39-1.78,12.87,3.36,2.06,7.54,4.69,8,9.43.16,1.56,4.61,4.24,5.47,5.33,3.24,4.1.35,8.88,3.95,8.4s8.36,2.72,7.48,6.8,7.2,3.58,9.15,5.81.43,4.21,3.35,5.79c2.54,1.38,7.66-.55,9.91,1,3.82,2.68-1.79,9.14.36,12.57.05.07,6.51,3.22,6.7,3.43,2.73,3,2.47,7.88,7.08,8.65,5.65.95,10.2,4.09,7.89,10.3-6.84,18.39,10.74,8.26,15.92,19.22,2.29,4.85.45,8.55,3.82,12.82a33.18,33.18,0,0,0,5.49,5.8c3,2.52-1.51,5.53.74,9.57,1.34,2.38,5.77,3,7.65,4.79a24.9,24.9,0,0,1,6.05,10.72c1,4-1.79,14.54,2.81,15.11,6.52.8,1.29,6,2.87,8,2.83,3.66,7.37,4.48,8.75,4.72,3.88.67-.79,8.07,4.63,9.9C2213.33,276.76,2203.77,260.07,2198.57,258.76Z"/><path d="M2103.83,463.63c-5.17,2.63-10.44,6-15.26,2.36-2.75-2.09,2.35-6.23-3.1-7.59s-7.38,7.2-12.07,7c-1,0-13.16-11.64-7.71.1,4.7,10.11,11.85-2,17.1-1.05,2.34,1.16,1.89,6.11,4.66,7.72,2.39,1.38,9.68-1.28,10.85.31,1.33,1.81-5.9,7.88-6.18,9.23-.54,2.57-.42,46.64,1,47.33.57.28,2.18-4.08,2.73-7.82,1.66-11.4,2.78-35.81.53-38.58C2100.42,479.14,2117.68,457.48,2103.83,463.63Z"/><path d="M1908.23,48.06c-4.71-2.78-10.27,2.82-15.21,2-3.44-.55-7.37-4.25-11.28-5-12.81-2.48-9.51,3.38-14.43,10.89-4.85-.58-4.32-.22-8.72,1.4a7.1,7.1,0,0,1-4.31,3.35c-2.1.39-5.48-2.29-9.35-1.63s-4.23,7.4-8.93,10.7c-4.12,2.89-8.06-.19-11,3.52-1.61,2-.11,3.46-2.06,6.35s-5.77,0-9.61,3.67-2,10.22-6.48,12.83c-3.65,2.13-8.36,1.34-10.07,5.66-1.49,3.76,2.61,8,.79,11.31-1.59.79-4.42,1.2-5.88,2.21-.84,1.68-2.41,5.92-3.18,7.63-2.93,3-13.8,7.46-15.27,9.87-.15,2.29,2.64,4.92,4.54,6.31q2.89,1.81-.3,3.48c-1.46,1.25-2.91,2.52-4.35,3.79-3.27,3.65-4,4.23-4.06,8.72-.09,4.22,3.79,1.75,2.34,6.49-1.26,4.1-11.52,5.36-11.21,10.65.24,4.08,6.33,3.61,5,7.41-1.69,4.9-10.69,4.31-6.46,10.72,5.16,7.83-10.23,9.63-9.57,14.23.8,5.59,12.74,1.28,7.11,11-2.82,4.86-18.5,6-13.58,12.72,2.83,3.87,7.16-2.19,6.26,5.36-.64,5.42-6.73,4.56-4.41,11.06,1,2.72,7.48-.26,4,6.36-1.42,2.7-8,1.88-8.39,5.11s6.83,1.47,7.95,2.43c4.3,3.67,1.59,9.11-2,12.06-2.31,1.89-13.95,5.68-3.29,7-1,9.79-22.22,3.37-13.3,13.71-2.27,1.67-8.57,2.19-8.65,5.83,0,2.81,4.82,1.47,4.56,3.89-.26,2.23-10.28,5.84-2.39,5.77,4.56,0,12.23-8,4.32-9.45,2-1.63,4.11-2.85,5.81-4.84,1.88-2.21-.83-3-.09-4.57s8.93-1,10.87-2.54c3.42-2.75,4.13-9.34,7-12.75,6.52-7.61,2.51-15.22,1.38-17.16s3.85-4.23,3-8c-.68-3-3.83-6.44-4-8.9s6.48-8.78.64-11.61,7.6-5.26,10.15-9.91c2.93-5.35-1-9.38-4-13.5,1.56-2.4,5.32-2.94,6.83-5.53,3.06-5.25-1.56-6.29-.82-10.33.81-4.35,8.5-5.91,8.22-10.34-.25-3.88-3.52-3.6-3.63-5.9-.15-3,.44-3.51,2.2-5.19a21.35,21.35,0,0,0,6.07-5.32,8.33,8.33,0,0,0-1.72-6.32c1.6-6,10.64-7.66,11.26-13.23.33-3-5.24-4.17-4.62-7.53.42-2.26,7.28-4,9.07-5.35,3.06-2.33,4-6.51,6.64-8.78-.82.7,6-4.83,6-4.85,3-4.61-.92-3.92-.75-8.36.17-4.59,4-7.51,7.79-9.65.22-.12,18.72-5.24,8.41-6.09,1.46-5.12,5.52-3.58,8.15-5.15s-.64-10.88,11.32-12.53c6.05-.84,5.34-6.36,9.08-7.43s5.54,3.43,8.62,2.88,4.58-2.3,4.84-5.26a2.64,2.64,0,0,1,1.83-2.85,10.33,10.33,0,0,1,3.66.88,6.89,6.89,0,0,0,4.5.74,4.94,4.94,0,0,0,.74-4.75c2.59-4.2-1.41-4.73,5.44-6.55,3-.8,9.75.59,12.25,2.55,1.33,1,2.93,6,4.1,6.39,4.42,1.52,2.86-3,6.59-4.24,5.3-1.69,6.39-1.53,11.32,1.26.5.28,3.27,5,3.35,5C1922.2,61.87,1911.17,49.79,1908.23,48.06Z"/><path d="M2059.54,298.53c1.6-4.13,6.36-8.18,6.42-12.89,0-.89-1.27.36-1.35.9-.75,4.76-8.49,8.6-10,13.15-1.83,5.6.1,12.76.18,18.57.25,18.82.37,39.5-11.11,55.43-5.42,7.53-15.73,12.33-22.77,18-6.54,5.27-10.22,15.84-15.8,22-8.24,9.16-15,15.67-27.15,18.7-14.43,3.6-32.43,3.89-46.64-.27-13.08-3.84-19.27-17.32-24.77-28.46a81.34,81.34,0,0,0-7.1-12.78c-1.26-1.66-14.42-16.49-18.55-23-5-8.64-3.48-21.14-7.28-30.36-3.39-8.22-8.13-11.12-9.38-19.2a43.27,43.27,0,0,0,11.9.71c4.12-.16,24-6.13,21.41-9.54-.18-.2-4.86,2.48-7.3,3-17.43,4-25-.33-26.15-.61-1.46-10.43-4-17.17-3.5-28.51.51-10.58,4-19.34-1.58-30.52-1.74-3.54-2.69-8.34-3.61-11.29a62.59,62.59,0,0,1,32,.9c7,2.12,10.83,6,17,9.71,5.48,3.31,5,3.33,6.78,8.78.33,1,2.25,3.61,4.58,4s-4.18-6.67-1.85-12c1.48-3.39,1.86-3.13,6.8-3.5.8-.06,15.08-.24,13.85-1.88-.78-1-20.45-.43-21.54,1.06-.69,1-7.46,1.58-9,.61-7.79-4.87-15.2-9.58-24.39-10.93-8-1.17-15.9-.09-24.6,1.66-.25-.9-.65-1.94-.84-2.83a84.48,84.48,0,0,1,15-2c14.76-.57,25.92,7.25,40,9.52,3.28.53,27.12-.7,33.12-4s24.72-17.45,33.89-21c7.69-3,30.21-4.11,36.62-3.94,12.53.34,32.29,3.07,40.35,2.45,2.64-.2,4.67-.63,5.86,4.15.45,1.8,1.74,5.56-1.81,7.12-1.29.57-5.44.49-7.16,4.18-1.87,4-.58,10.89-.6,15.24,0,1.39-.26,7.41-.33,8.6-.48,5.79-6,17.1-3.35,8.77s2-27.53-6.55-37.2c-10.09-11.43-30.08-9-43.57-7.73-10.76,1-21,3.37-30.52,8.6-2.33,1.28-18.57,11.1-19.41,14.61-.19.81,18.06-11.64,25.85-14.62,12.21-4.66,30.27-7.56,43.28-7.08,21.61.79,32.36,18.59,27.73,40.35-5.42,25.48-36.89,38.27-59.86,33.42-10.59-2.24-19.52-6.69-26.75-14.42-5.26-5.62-8.09-12-10-13.15-2.32-1.46,6.53,12.33,13.24,18.59,5.25,4.89,11.46,9.92,16.77,11.9s14.27,2.69,23.58,3.2,43.58-8.38,50.49-36a89.14,89.14,0,0,0,1.74-16c-.05-5,.07-9.74,1.7-14.48,1.31-3.82,8.27-6.34,8.54-8.79a20.46,20.46,0,0,0,.19-5.75c-.71-5.42-4.3-7.18-8.84-7.63v0a3.15,3.15,0,0,1-1.1-.08v0c-3.84-.21-8.21.33-12.06.33-11.47,0-22.9-1.3-34.38-1.28-4.35,0-14.59.34-19.69,1.31s-13.27,3.3-18.67,6.39c-2.4,1.38-26.83,17.19-30.32,18.54s-23.77,3.25-27.52,2.5c-11-2.21-21.59-8.62-33.23-8.74-7.82-.09-15.19-.24-22.69,1.27-.68-3.92-1.19-6.51.25-12,1.1-4.2,14.37-46.77,9.6-46.53-2.46.13-9.47,29.06-10.67,32.69-3.16,9.5-3,17.85-2.06,26.46-4.21.93-7.34,3.35-11.44,5-10.6,4.39-19,11.6-29.08,14.9-3,1-6.1,1.51-5.17,6.26.39,2,1.5,11.39,3.64,11.25,6.46-.45,10.93,10.79,15.31,17.14,9.47,13.73,19.78,24.13,34.57,27.91.49,4.13,9.28,19.34,10.52,23.39,4.46,14.55,2.28,18.31,9.88,30.3,4,6.74,10.74,14.72,15.27,21,5,5.34-1.57,19.57,2.95,20.37-3.53,6.63,2.58,8.38,1.21,14.79-4.08,5.72-22.18-3.48-25.42,6.27-1.35,4.07,11.38-1.63,14.33-.68-4.38,7.12,5.89.62,7.1-.07,4.78-2.71,6.76,1.61,7.85-6.12.56-4-6.74-7.52-1.28-10.92s-2.07-3.46-2.14-6.11c0-1.46,2.54-6,3.67-5.66s2,4.15,4,8.36c3.32,7,6.59,14.78,16.26,19.47,11,5.35,25.07,7.81,37.16,7.81,17.78,0,33.54-7.27,45.93-19.93,6.93-7.09,11.22-16.81,18.91-23.1,6.86-5.6,21.32-16.27,21.42-11.54.09,4.35-3.31,4.92-4.36,9.18-1.15,4.64,1.57,4.2,2,7.28.63,4.29,1.53,2.64,0,7.63-2.44,7.72-5.24,11.05,5.84,9.19-2.59,4.33-14.12,22.08-3.92,24.08-7.29,6.45-6.6,13.44,4.17,12.09-5.15,9.32-2.07,20.92,0,12.08.39-1.69,4.14-12.72,3.57-14.07-1.76-4.18-7,.15-9.13-1.38-4.39-3.1,14.38-10.18,12.94-13.4-1.37-3.06-8.44,2.39-10.61.74-4.48-3.37.78-9.36,3-12.87,1.08-1.71,7.43-8.64,5.44-11.22-1.42-1.85-6.24.58-7.93-.83-.84-5.35,13.74-5.7,9.2-12-1.38-1.92-6.47.53-8-3.25-2.06-5.16,4.05-6.48,5.54-10.46,4.22-11.3-7.42-10.4-3.67-15.16,8.21-10.44,7.65-31.7,7.17-40.15s0-15,.06-21.35C2057.68,306.7,2057.88,302.81,2059.54,298.53ZM1830,293.26c-5.37-7.44-11.65-23.5-16.82-23.55-3.28,0-3.84-6.32-3.38-9.67,1.41-1.14,5.37-3.54,7.18-4.6,5.85-3.42,11.49-7.57,17.78-10.62,6-2.9,10.32-5.51,16.48-6.9.13.88.41,1.94.62,2.85-7.4,1.67-13.68,3.92-19.2,8.54C1817.13,262.32,1831.75,295.64,1830,293.26Zm9.75,6.85c-11-15-20.55-46.46,7.13-56.21a54.64,54.64,0,0,1,5.54-1.36,32.77,32.77,0,0,0,1.67,3.85c8.86,21.75-1.81,39.45,4.52,64.37C1850.27,308.51,1843.73,305.52,1839.79,300.11Z"/><path d="M1911.47,89.63a3.05,3.05,0,0,0-3.45.24c-1.11,1.87,2.68,3,2.36,4-.22.75-2.06,3.87-2.39,5.3-1.49,6.46.41,4.75-4.59,7-2.33,1.07-10.79-2.51-10.92,3.51,0,1.25,7.37.43,7.93,2.78s-12,2-15.16,6.55c-2,3,2.13,2.28,1.85,7.12s-17.47,9.7-15.17,12.76c2,2.64,22.31-4.9,6.48,5.7-3,2-5.32,5.41.28,7.37,4,1.41.41,3.17,1,5.47.79,3,6.58-1.58,6.9,2,.38,4.2-3.94,2.43-2.55,6.78,1.21,3.8,5.78-1.85,5.06,4.22-.23,1.95-3.84,2.31-4.2,3.83-1,4.17,6.1,3.39,6.29,4.3.45,2.17-7.41,2.49-4.21,6.53.76,1,2.57-1.15,4.36,0s-1.48,2.4-.88,3.78c1.67,3.88,13.69-5.47,2.8-7.41,2.41-2.37,3.12-6.68-1.16-7.28,2.63-3,2.38-8.13-1.93-9.35,2-1.38,2.55-3.75,1.3-6.66-2.24-5.22-10.69-7.47-7.5-10.9,5-5.35,5.87-8.88,1.58-10.74s13.64-5.41,10.28-11.2,5.45-5.82,8.56-9.08a7.33,7.33,0,0,0,2.8-6.7,11.33,11.33,0,0,0,3.64-2.8C1913.16,101.88,1919.17,91.67,1911.47,89.63Z"/><path d="M2009.92,158c-2.4-3.47-6.57-.29-7.24-2.79-1-3.66,7.33-6.52,5.28-9.44s-8.2-.36-7.46-4.93c.67-4.07,12.5-4.75,10.7-9.06-1.64-3.9-17.84,5.33-18,11.48-.07,2.41,7.84,3.75,5.51,5.92s-5,6-3.84,9.1c.73,1.89,5.39,1.32,6.21,2.76s-1.4,3.72-.83,5.11c1.35,3.32,9,5.39,10,3.51,1.18-2.16-5.17-2.43-5.19-4.71C2005.06,162.2,2012.31,161.48,2009.92,158Z"/><path d="M2199.26,352c1.15-2.3-11.76-4.06-14-7.26-4.61-6.56,14.47-9.38,3.82-15.5-4.42-2.54-7.26,1.6-7.07-4.35.1-3.3,4.27-4.5,4-7.91-.27-4-5.29-4.74-5.64-6.94-.75-4.7,4.67-7.07,6-10.84,5.13-14.58-14-1.23-13.89-13.26.06-4.93,2.36-8.2-1.15-13.19-1.72-2.44-1.76-2.1-2.81-5-1.1-3.08,11.12-8.15,10.53-11.75-1.2-7.35-22.89,8.89-19.61,14.15,2.15,3.44,6.88,2.86,8.23,7.23,1.86,6-6.55,10.61-.29,16.44,3.7,3.45,8.16,4,12.72,3.93-2.62,4.19-4.31,6.09-4.32,11.42,0,5.57,5,5.05,5.64,7.85.76,3.24-3,3.87-3.9,7.41-1.77,6.84,3.29,8.77,9.14,8.77C2164.07,351,2198.11,354.27,2199.26,352Z"/><path d="M2170.19,435.43c-.51-4.46,2.95-4.18,2.92-8.88,0-7.09-5.9-3.55-10-6.39-5.35-3.7-.49-5.9,4.11-8.67,22.69-13.61-3.33-2.16-4.25-10.87-.67-6.42,11.51-4.51,7.05-12.15-1.13-1.94-11.82-1.65-11-5.08.62-2.43,11.63-2.56,13.69-5.3,3.77-5,3.1-7.38-.64-11-4.88-4.74-10.73-3.27-9.73-11.12.59-4.59,9.62-9,9-13.92-1.31-11.3-15.78,11-14.62,17,1.56,8.06,17.35,9.66,7.3,16.44-3,2-7.22,2.31-9.23,6.49-2.91,6.05,4.63,8,8.8,9-9.26,5.15-12.47,16.48,1.32,16.71-4.34,2.4-12,7-9.9,13.22,2,6,8.05,2.94,12.44,5.27-5.78,9.34-.1,13.68,1.24,16.2S2170.43,437.51,2170.19,435.43Z"/><path d="M2153.39,433.15c-6.07-2-16.93.13-21.54,3.4-12.06,8.57,6.72,8.6,11.68,13.51-7.83,3.23-31.33,9.19-15.42,18.42,4.56,2.66,8.9,1.08,5,5.33-3.75,4.1-12.49,1.56-11.78,8.89.27,2.83,8.06,16.25,10.92,17.12,6.48,2-.32-6.36-.95-7.35-1.55-2.42-5.82-7.69-5-10.31,1.31-4.12,8.64-3.67,11.17-6.88,7-8.88-19.89-11.08,0-18.56,3.89-1.46,12.53-2.79,9.52-8.33-2.16-4-17-3-14.47-8.33s22.33-.76,23.39-4.95A2.8,2.8,0,0,0,2153.39,433.15Z"/><path d="M1784.24,365.13c-4,2.13,11.47,6.34,14.65,9.15s4.66,3.61,4.8,6.93c.3,6.87-16.07,5.9-14.9,10.69,1.09,4.39,12.88.13,15.83,3,9.32,8.89-11.61,6.55-12.32,11.08-1,6,14.83,2.95,7,11.74-2,2.26-7.4,1-8.58,4.59-1.93,5.88,2.79,2.84,4.28,6.3,2,4.54,3.36,2.51,1.51,6.68-.92,2.08-5.46,3.17-5.94,4.56-2.82,8.17,5.8,2.12,6.6,8.08.39,2.94,10.07-5.92,1-6.8,6-4.67,4.9-12.8-1.47-16.66,5.18-3.31,12.84-12.3,5.47-17.56,9.78-3.74,11-14.64-.2-17,4.9-3.53,8-7.41,3.47-16.05S1789.58,362.25,1784.24,365.13Z"/><path d="M1755.53,384.72c.38-5.92-2.66-10.91-9.52-13.71,2.83-2.27,4.34-8.9,4.64-15.7.59-3,.2-8.56.19-10.48,0-2.75,7.22-3.48,4.83-6.95s-6.57-.29-7.23-2.8c-1-3.66,7.32-6.51,5.27-9.43s-8.2-.37-7.45-4.93c.66-4.07,12.5-4.75,10.69-9.06-1.63-3.9-17.83,5.33-18,11.48-.07,2.41,7.84,3.75,5.51,5.92s-5,6-3.84,9.1c.53,1.36,3.08,1.45,4.78,1.92-.45,4.59.56,13.53,1,15.82.64,3.55-1.69,7.69-3,10s-5.86,3.24-6.66,5.25c-3.63,9,8.2,4,12.86,7.87,5.32,4.42-6.76,12.28,4,14.55,2.45.51,5.07-4.21,8.31-2.29,4.63,2.76-.87,4.11-2.65,5.47-1.23.93-18.84,3.27-17.38,6.84,1.1,2.69,8.14-1.15,7.36,4.49-.43,3.16-4,3.27-6.94,4.22-2.14.68,2.74,8,10.57-.43,2.25-2.42,3.08-5.71.44-8,5.66-1.44,13.86-4.27,14.35-9.83C1768.48,385,1762,386.14,1755.53,384.72Z"/><path d="M1854.78,428.17s.77-7.38-.09-8.68c-2.15-3.22-8-3.8-11.36-4.7,2.36-1.6,8.49-4.55,6.68-8-2.34-4.51-10-.36-5.49,2.14-2.84,2.12-21.28-1.09-18.53,2.92,2.39,3.48,20,6.6,23.08,9.26,11.08,9.59-24,4-18.81,11.1,3.37,4.57,24.9-4.82,25.47,2.66.26,3.45-12.35,5.15-14.11,6.7-7.7,6.82,2.64,1.84,5.21,6,.13.3-.86,7.88-.86,8.06,0,.89,1.8,2,1.79,2.93s-1.25,1.6-1.26,2.2c-.08,4.36,1.28,13.44,1.14,18.34-.51,18.1-2.39,20.76-2.33,38.89,0,6.67,4,11.21,4.38-2.85.38-16.28.84-21.56.83-37.85,0-5.21.56-10.4,1-14.87.3-3.34.16-3.7-.79-7.52-.39-1.59-1.14-2.91-1.46-4.37-.76-3.36,3.78-3.3-.14-7C1856.55,440,1865,435,1854.78,428.17Z"/><path d="M2093.59,299.92c8.64-5.63-.13-9.35-2-10.54,5.83-5.24,14.66-22.12,1.61-25.16,3-4.35,6.64-15.84,0-19.15,8.52-8,5.76-24.46-5.38-24.4,9.05-10.46-1.58-17.72-8.68-14.83,4.18-4,9.6-4.14,10.53-13.51.8-8-.14-12.89-5.27-13.64,4.86-6.56,5-13.68-3.11-20.05-5.46-4.31-10.84-2-15.46,1-.81-9.69-9.87-6.6-13.72-6.81,2.18-8.83,12.53-25.66,2.24-21.34-8.94,3.75-10.69,13.79-3.5,11.11-1.83,4-6,10.59-1.31,15.5,2.23,2.31,4.52-1.07,6.76.39,8.69,5.69-.92,7.13,4.13,11.91,5.63,5.33,8.51-9.1,14.56-7.63,15.42,3.76,2.35,14.28-1.51,16.19-5.2,2.57-12,6-3.3,9,3.93,1.33,12.51-6.87,15.71.59s-12.27,12.27-12.28,17.92c0,7.81,9.3,4.63,12.8,6.5-2.79,3.15-10.5,3.16-7.75,11.24,2.47,7.26,11.89.26,14,7.4,4,13.59-23.1,10.22-6.74,18.57,6.86,3.5,10.5-1.26,2.63,9.63-6.42,8.88-7.13,6.62,1.21,10.92,9.73,5,6.57,3.6,0,11.94C2086.22,287.12,2082.74,306.14,2093.59,299.92Z"/><path d="M2005.78,190.29c-11.5,3-27-6.88-42.47,6.9-4.3,3.83-13.28-3.26-10.75,10.08,1.57,8.34,17.57-8.31,23.19-10.75,7.74-3.37,16.57,1.42,25.54-1.53,14.91-4.9,26.12,5.95,24,1.65S2015.37,187.77,2005.78,190.29Z"/><path d="M2014.29,240.4c-10.55-5,3.81-6.37-11.1-6.86-3.49-.11-13.56-1.17-17.16-.54-8.18,1.42-6.44,3.85-10.08,5.37-2.43,1-13,7.25-12.22,11.57.26,1.43,26,4.38,29.84,4.5,14.39.44,17.52-6.91,22.73-10.2C2016.81,243.92,2016.48,241.42,2014.29,240.4Zm-44,8c-2.16-1.45,9.74-9.41,11.53-9.61s-.79,2.32-.26,5.89c.44,2.93,2.72,4.29,2.77,5.66S1972.56,249.92,1970.29,248.4Zm29.76.36c.51-1,2-2.55,2-4.47,0-3-2.11-6.95,1.54-5.76.83.28,4.86,3.22,5.12,3.89C2009.54,244.61,2003,249.78,2000.05,248.76Z"/><path d="M1900.64,253.63a4.78,4.78,0,0,0-1.4-2,4.72,4.72,0,0,0-1.6-.62l-8.66-2.22a42.12,42.12,0,0,0-7-1.39c-1.74-.14-3.5-.06-5.24-.18s-3.57-.37-5,.57a3,3,0,0,1-.94,1.84L1863,258.8a21.62,21.62,0,0,1,4.8,3.8c.76.9,1.37,1.91,2.16,2.78a13.16,13.16,0,0,0,3.16,2.44c2.12,1.23,4.59,2.17,7,1.73a11.1,11.1,0,0,0,3.35-1.32c1.54-.83,3-1.76,4.5-2.68l5.4-3.39a20.48,20.48,0,0,1,6.95-3.17c1.23-.23,1.88-.06,1.82-1.48S1901.19,254.76,1900.64,253.63Zm-20.72,10.2a10.78,10.78,0,0,1-4.39-.75c-2.54-1-4.69-2.93-7.35-3.48a.67.67,0,0,1-.42-.18c-.22-.28.12-.66.42-.85,1.4-.91,7.1-5.89,8.56-3.93.68.91.48,3.1,1,4.25a8.3,8.3,0,0,0,2.67,3.71c.23.19.49.43.45.73S1880.29,263.82,1879.92,263.83Zm19.93-6.67c0,.27-1.71.87-1.95.92-1,.23-3.24,2.39-2.83,1.08a11,11,0,0,0,.83-3.08,5.72,5.72,0,0,0-1.22-3.07c-1.19-1.3,3.23.53,4.1,1.4A3.61,3.61,0,0,1,1899.85,257.16Z"/><path class="eyes" d="M1989.46,249.13a5.47,5.47,0,0,0,4-.33c2-1.22,2.43-2.26,3.53-4a3.9,3.9,0,0,0,.74-2.67,1.33,1.33,0,0,0-1.15-1.06,4.49,4.49,0,0,0-2.76,1.3c-.78,1.25,1.07,2.38-2.15,3.37-2.62.8-.3-3.52-1.73-3.7a2.92,2.92,0,0,0-2.82,2A4.06,4.06,0,0,0,1989.46,249.13Z"/><path class="eyes" d="M1883.52,260.61a5.19,5.19,0,0,0,3.65-.41,9.5,9.5,0,0,0,3.37-3.58,3.47,3.47,0,0,0,.79-2.31,1,1,0,0,0-1-.87,4.43,4.43,0,0,0-2.54,1.2c-.77,1.1.84,2-2.1,3-2.4.78-.1-3-1.38-3.12a2.93,2.93,0,0,0-2.63,1.82A3.16,3.16,0,0,0,1883.52,260.61Z"/><path d="M2387.94,152.12c2.08-4.35-6.07-12.33-10.68-10.6-1.36.51.58,3-.58,3.78-3.82,2.73-8.73-9.37-11.89-4.94-.6.84-.46,1.81-1.34,2.33-2.46,1.44-9.78-7.48-13-3.06-.91,1.24.25,2.49-.62,3.74-3.45,4.92-20.71-9.94-21.43-1.91-.11,1.2,0,1.14-.09,2.33-.61,5.81-20.38,1.1-17.55,9.07,1.47,4.12,6.78-2.89,11.34-4.22,4.31-1.25,9,.77,10.72-2,.7-1.15-1.42-2.73-.94-4,1.79-4.76,17.29,10.66,21.87,3.74,1.08-1.63-1.46-1.94-.51-3.65,2.82-5.13,12.59,10.43,15.48,4.93.8-1.53-.43-2,.76-2.21,2.37-.51,6.05,9.16,10.73,5.61,1.85-1.4-.17-6,1-4C2382.6,149.32,2386.9,154.3,2387.94,152.12Z"/><path d="M2430.75,155.28c-1.43-1.2,1.18-4.56-.58-4.15-3.66.86-5,7.15-2.8,10.23,1.35,1.94,6.82-5.44,6.57-3.37-.29,2.31-1.71,3.49.87,5,2.12,1.25,7.33-.66,11.39-1,9-.68,17,10.33,16,6.25-.48-1.93-6.21-13.11-15.21-8.48-2.2,1.13-3.43-2.59-6.06-3.56-.53-.19-3,2.78-3.68,1.74-1.62-2.48,2.2-3.7,1.48-6.57C2437.81,147.9,2432.44,156.71,2430.75,155.28Z"/><path d="M2368.09,169c-3-1.22-7.82-1.18-5.73-2.38,1.36-.78,2.75-5.14,1.95-8.3C2369.23,161.13,2367.4,167,2368.09,169ZM2350,155.13c-1.95,1.81-2.38,10.31.42,11.69-6.47.89-11.76-1.69-17.75-3.46C2337.87,160,2345.16,155.51,2350,155.13Zm30.55,16.1c-9.05-8.52-14.09-18.7-27.9-19.13-2.4-.07-32.71,9-30.32,14-1-2.17,20.74,5.11,22.48,5.25,4.92.4,12.55-1.41,18.84,0,4.09.93,5.65,3.26,10.66,2.4-.52-3.69-4.66-7.42-5.6-11.9,2.26,2,10,12.7,13.68,11.9a2.4,2.4,0,0,0-1.84-2.57C2373.72,164.77,2381.11,171.71,2380.59,171.23Z"/><path d="M2411.61,163.24c6.61,10.56,5.71,27.66,8.49,40.24,3.69,16.68,17.63,24.17,7.32,39.56-9.35,14-22.28,14.34-36,2.44-3.73-3.23-1.29-3.75-5.09-6.07-3-1.84-8.94.46-12.48-1.24-2.66-1.29-5.81-7-11-12.23-1.68-1.71-1.91-4.59,1-5.38,2.25,2.11,3.12,5.08,5.08,7.45,2.66,3.22,4.83,4,9.14,5.91,8.12,3.61,32.18,0,26.2,12-1.39,2.79-6.17-2.51-10-3.51,0,3.74,14.93,10.19,20.72,8.23,6.44-2.18,13.39-14,13-19-.76-9.16-9.78-16.74-11.73-26.7-2.24-11.52-4.62-30.07-4.62-41.74"/><path d="M2388.59,218c-2.85-1.24-5.67-5.11-8.37-6,5.37-1.43,15.11,1.54,11.71,6.19C2391.43,218.89,2389.52,218.39,2388.59,218Z"/><path d="M2427.87,283.56c-1.23-2.2-3.95-7-4.73-7.53-3.62-2.57-18.35-2.13-20.75-3.34-2.86-1.42-20-7.33-28-8.28-1.26-.15-15.72.74-14.36,1.45.64.33,16.32.24,17.37.7,6.43,2.83,19.2,7.5,23.32,8.45,5.2,1.18,13.07.31,18.31,1.68,3.62.95,6.69,6,4.38,5.18s-8.14-3.81-12.2-3.3c-12.75,1.59-19.6-3.52-31.76-7.55-4.47-1.48-50.48-8.5-48.71,2.85,15.45,12.86,38,36.41,58.74,36.05,10.3-.17,18-.61,24.93-8.36,4.08-4.58,10.71-15.23,13.46-15C2431.62,286.88,2430.74,285.36,2427.87,283.56Zm-25.29,19.6c-19.86,3.92-48.5-9-66.12-29.29-3-3.44,35.27-3.8,38.68-2.67,7,2.31,12.69,7.92,19.73,9.88,10.08,2.81,19.8-3.39,28.78,3.72C2418.13,291.08,2411.7,301.35,2402.58,303.16Z"/><path d="M2418.75,303c.69-5.68-7.07,14.16-11.42,16.79-5.44,3.31-9.3-2.45-14.69-3.13-5-.63-12.91,2.18-16.92.65-6.52-2.51-11.5-9.52-17.54-13.39-5.86-4.72-7.83-3.74-.74,1.46,5.26,3.57,9.5,13.16,14.9,15.94,5.22,2.68,9.6-.7,15.6,0,4.91.61,14.16,5.89,19.11,4.22C2411.16,324.17,2418.1,308.33,2418.75,303Z"/><path d="M2420.12,378.29c0,18.32-15.56,29.69-23.32,45.19-7.89,15.76-8.22,24.35-24,32.18-13.3,6.59-38.36,19.37-53.48,17.08-11.39-1.73-23.54-18.23-31.24-25.75-10.44-10.2-20.54-22.59-27.78-35.39-8.31-14.71-4.5-30.25-5.94-46.7-2-23.46-10.25-64.24-15.16-87.21-3.17-14.79-4.11-21.5,1.91-13.63,4.05,5.3-1.1,63.64,37.36,72.16-6.73-9.86-16.36-13.89-21.78-25.26a144,144,0,0,1-10-30.62c-2-8.93,1.87-37-4.16-41.53-2.75,5.86-.11,14.16-.43,20.24-7.21-7.79-4.33-12.58-15.77-14.77-6.19-1.18-8.51.22-13.62-4.24-8.25-7.22-10.12-24.63-10.4-34.42-.23-8.1.19-30.48,10.7-33.53,10-2.9,10.73,12.44,20.21,7.86-.06,4.55-.42,12.76,1.77,16.87.74,1.37.06,4.1,1,5.41.76,1,5.41-.07,5.21-.36,1.87,2.66,3.71,19.24,8.23,20.82,6.92,2.41,11.29-62.67,13.25-71.4,4.06-18.12,9.63-11.66,23.21-19.47,9.31-5.35,21.43-20.89,22.05-30.49.47-7.14-8.28-2.89-2.84-11.42,2.24-3.5,9.7-2.58,12-6.21s-.49-8.79,1.74-12.71c3-5.33,9-6.83,14.58-7.9,11.41-2.15,23.26,1,34.66,1.7,14.34.83,27-3.45,40.54,2.61,10.76,4.83,27.1,12.41,35,21.34,8.15,9.2,11.65,27,14.13,38.9,1.59,7.63-.48,15.83,1.36,23.32,1.54,6.3,5.8,10.18,6.53,16.79,1.88,17.15-8.8,33.31-6.15,51.42,5.16,35.22,2.94,58.44-15,90.07-8,14.06-25,28.63-31.77,43.26-6.42,13.82-3.19,28.67-20,34.88-13.5,5-20-3.52-36-5.75-9-1.25-21.54-4.62-26.61-12.24-2.54-3.81-11.15-26-10.54-21.41,1.57,11.67,6.25,23.6,15,31,8.13,6.88,21.59,8.52,31.72,11.3-2.73,16.76-20.76,10.33-33.13,31.17-1.12,1.88,9.44-6.9,16.09-11.05,3.49-2.18,10-6.09,13.5-8,4.94-2.77,7.44-9.79,11-10.16,9.43-1,16.76,1.88,25.72-4.15,8.4-5.66,12.73-16.61,15.5-25.88,3.82,2.61,5.17,12,5.16,16.08C2420.11,384.27,2420.13,372.32,2420.12,378.29ZM2208.52,148.9c.94-5,.69-12.77.56-18.32-.26-11.15-5-17.9,3-24.74,1.74-1.47,10.65-2.56,11.15-6.23.93-6.91,8.57-21.22,11.65-24.42,4-4.2,2.55-8.94,4.41-14.23,7.75-22,39.52-17.93,59.32-24.08,8.82-2.74,9.93-14,18.1-17.09,7.88-3,17.91-.36,26.57-3.43,13.38-4.74,18-2.7,31.9-.09,5.16,1,8.81-.11,12.67,3.47,5.29,4.91,1.09,8.18,8.89,11.05,4.11,1.51,10.24-3.82,15.07-2.51s7.82,7.2,11,10.32c7.26,7.07,12.26,13.42,18.38,20.91s14.1,11.34,18.52,20.14c3.86,7.69,9.23,20.94,10,29.31,1,11.55-5.45,22.47-1.31,34,1.82,5,3.9,6,3.65,11.88-.21,5-3.41,11.57-4.3,6.73-1.06-5.78-3.21-5.61-5-12.15-1.9-6.77-.1-18.37-1.13-25.23-1.6-10.78-7.57-23.45-11.7-33.77-6.8-17-40.89-31.57-58.31-32-14.25-.32-27.71,1.43-42.12.7-9.47-.47-29.46-3.29-36.61,4.9-4.24,4.85,4.09,12,1.23,17.17-2.14,3.86-11.42,3.35-13.75,6.55-7,9.65,4.15,10.77-.66,21.42-9.51,21-35.67,18-41.51,38.54-3.79,13.35-2.1,29.15-3,42.94-.22,3.64-.93,12.67-4,15.7-2.31,2.31-3.66-4.94-5.27-7.58-4-6.58-6.39,2.29-9.23-8.23-.38-1.41.69-14.56,0-15.49-2.56-3.47-6.26,3.3-10.54-2-5.91-7.28-7.9-12.19-16.14-5.6-3.21,2.56-7.64-2.19-5.93-6.26C2205.17,158.76,2207.63,153.6,2208.52,148.9Zm259.36,236.54c-13.76-7.55-32.54-14.6-45.17-23.89-7.45-5.48-7,1.06-5.37-9.16.49-3,6-9.05,7.39-10.91,6.66-8.81,14.12-16.7,19.77-26.31,10-17,17.71-36.82,19.92-56.46,2.92-25.82-4.46-48,2-73.87,2.29-9.2,6.41-17.26,8.56-25.79,2.24-8.88-.24-9.6-3.09-17.14-3.58-9.48,2.78-21.74,3.37-31.21.65-10.58-5.49-15.6-9-24.86-3.93-10.44-5.11-10.7-13.36-18.91-4.44-4.41-6.94-9.79-10.38-14.54-5.71-7.88-11.28-17.41-19.81-23.73-9.95-7.39-13.12-.89-22.8-4.12-6.86-2.28-7.56-9.78-13.27-13.83-4.91-3.48-16.17,1.2-22,.39-10.73-1.48-13-3.79-22.82-.57-8.39,2.74-19.28,1.05-27.29,3.55-8.82,2.75-9.09,11.15-16.82,15-5.77,2.84-19.08-.52-26.16,1.49-8.71,2.48-14.44,10.38-22.79,14-10,4.34-9.65,6.44-12.87,15.06-3.67,9.82-4,9.47-12.29,17.59-5.37,5.28-4.64,8-7,13.32-1.28,2.85,0,4.17-2,7.33-1.67,2.63-6.6,2.57-8.48,5.18-4.42,6.14-1.83,16.88-2.41,24.55s1.12,16.18-.08,23.17c-1.28,7.39-6,6.31-4.16,15.36.61,2.94,3,5.84,3.32,8.65.59,5-2.61,9.75-3.58,15.22a76.08,76.08,0,0,0-.59,17.46c.54,8,1.81,16.74,4.66,24.25,5.26,13.86,14.34,11.25,22.87,20.35,10.92,11.64,10.93,42.5,13.93,57.31,5,24.64,11.89,54.2,8.45,79.2-1.14,8.26-5.11,16.94-10.09,23.64-6.49,8.75-28.79,19.89-20.12,16.74,8.36-3,11.31-5.85,14.62-8.42,5.26-4.08,17.49-12,19.75-7.9,4.45,8.06,29.44,36.82,30.91,38.32,11.75,12,26.6,30.86,44.52,26.62,16.35-3.86,45-12.33,57.51-22.77,11.49-9.63,15.82-29.49,25.09-42.42,5.77-8.06,12.57-15.72,14.42-26,1.57-8.75,1.08-7.37.57-15.58,21.08,11.93,34.83,14.85,53.07,31.15,19.33,17.27,44.67,32.44,77.5,31.29,19.24-.67-38.24-7.94-54.25-19.18C2490,405.62,2476.41,390.12,2467.88,385.44Z"/><path d="M2449.57,186.43c-.6-.25-2.8-.9-2.08-1.36,2.11-1.37.2-4.66,2-2.07C2450.57,184.64,2451.39,187.21,2449.57,186.43ZM2424.26,180c.89-3.72,10.84-2,12.75-2-.46,2.32-.36,3.32.91,5.28C2432.71,183.29,2428.38,180.67,2424.26,180Zm35.11,2.54c-.47-4.6-13.95-9.14-17.71-10.4-8.27-2.79-20.94-5.69-22.45,3-.45,2.56,2.56-7.26,18.52-.23,2.79,1.23-17.93-1.45-17.09,5.81.54-.41,10.18,5.2,19.1,7.56,6.81,1.8,13.32,1.39,14.34,1.92.51-4.63-6.87-13.08-3-11.31,2.94,1.35,6.77,1.16,6,11.75a9.32,9.32,0,0,0,2.35-8.13C2458.8,177,2459.6,184.86,2459.37,182.58Z"/><path d="M2214.27,225.77c-.44-5.34,4-6.44,6.51-10.22.87-1.34,5.38-8.74,6.2-9.26,2.74.73,1.05,18.3,0,19.4-2.23-.24-1.65-6.52-1.8-7.67-5.53,2.09-11.95,6.3-5.19,12.35,2,1.81,8,2.09,9.86.9,3.58-2.24,1.54-8.94,1-14-.93-8.68-.87-18.74-7.59-25.12-5-4.78-11.54-3.09-11.86-9.75,22.2,7,26.16,29.79,22.09,49.1C2232.19,237.72,2215,235,2214.27,225.77Z"/><path d="M2329.72,509.7c-9,0-66.1-42.51-65.21-43.77,4.83-6.81,43.57,27.94,52.55,29.33,11.2,1.73,28.76.45,37.88-5.5,3.52-2.29,35.34-25.56,37.28-22.61C2397.45,475.15,2337.87,509.7,2329.72,509.7Z"/><path class="eyes" d="M2440.65,184.37a3,3,0,0,0,2.36.86c1.26-.35,1.63-1,2.45-2a2.7,2.7,0,0,0,.7-1.74,1.35,1.35,0,0,0-.55-1.08,1.87,1.87,0,0,0-1.72.2c-.58.69.36,2-1.59,1.85-1.59-.13.19-2.64-.61-3.15a1.3,1.3,0,0,0-1.84.69A4.15,4.15,0,0,0,2440.65,184.37Z"/><path class="eyes" d="M2354.05,165a4.48,4.48,0,0,0,3.62.37c1.78-.87,2.21-1.82,3.21-3.4a3.72,3.72,0,0,0,.69-2.53,1.58,1.58,0,0,0-1-1.24,3.17,3.17,0,0,0-2.49.81c-.72,1.11.93,2.55-2,3-2.36.35-.23-3.55-1.51-4a2.16,2.16,0,0,0-2.55,1.52A4.91,4.91,0,0,0,2354.05,165Z"/><path d="M125.3,171.93c-3.92-3.12-13.66,10-10.07,13.47,3.22,3.14,4-3.47,4.43-4.07,1.17-1.82,1.09,2.73,3.21,3.18,4.58,1,5.6-6.8,9.24-4.09,1.71,1.27,1.28,4.64,3.37,5.23,4.85,1.36,8.2-4.92,10.8-3.49,1.31.72,1.37,2.2,2.27,3.18,3.73,4,9-1.07,13.56-.35,6.6,1.06,15.73,12.63,14.91,8.66s-8.28-10.19-13-11.79-11.12,2.12-13.23-.08c-1.34-1.39-1.76-3.18-3.13-3.79-3-1.3-9.24,4.37-10.73,2.73-2.19-2.39-.95-4.31-3.76-4.8-3.79-.67-6.66,3.89-8.3,2.76C122.58,177.12,127.05,173.33,125.3,171.93Z"/><path d="M161.68,201.48c-3.88-1.86-6.75-5.59-10.22-6.18-5.28-.92-9.18,2.14-13.62,4-1.58.65-5.15-.07-5.3,2.62,2.12.18,4,1.15,5.86.46l.06,0-.07.18a6.84,6.84,0,0,0,1.19,4.62l.23.27-.46-.27c-1.49-.76-2.23-2.2-4.46-2.52,1.41,11.23,33.56,10.31,38.3,1.43C170.48,203,166.07,203.58,161.68,201.48Zm-9.35,8.22h0c.22-.11.44-.22.64-.34,2.12-1.44,2.27-4.66,1.89-6.25a6.08,6.08,0,0,0-1.73-2.89c1.3.49,2.7,1.12,4.33,1.87,2.93,1.2,7.58,3.5,8.2,3.56C171.81,206.33,161.08,209.65,152.33,209.7Z"/><path d="M113.53,281.88c.18-2.54,4.66-3.13,7.25-4.95,10.29-7.23,1.67-16.29-8.53-19,1.83-3.19,5.11-.46,7.25.42,5.09,2.08,10.56,4,14.08,7.58,4.92,5,5.29,14.64,10.21,20.46s11.22,7.22,15.7,13.71c.86,1.26,5.67,7.18,3.47,8.13s-3-4.38-5.35-6.59c-1.49-1.37-11.88-8.51-15.81-13-7-8.09-13-25.76-13.51-18.89-.59,7.72-6.79,11.83-14.76,12.14"/><path d="M102,273.22c.69-1.91,4.36,1.45,4-1.34-.23-2.07-8.08,1.59-12,1.74-3.52.14,5.89-5.76,11.77-5.35,2.93.21,7.85,2.16,7.67,5C113.25,277.46,100.11,278.5,102,273.22Z"/><path d="M139.53,321.46c-10.43-1.39-24.53-5.18-36.22-2.47-2.79.64-6.14,2.16-9.45,1.52-3-.58-4.14-3.56-7.18-4.82-3.56-1.48-3.64.06-7.17-1.67,3.86-1.36,5.25-4.33,10.2-4.13,3.78.14,7.63,5.19,12.4,4.88,18.4-1.21,27.66,5.13,24.52.5-4.22-6.22-18-2.36-25.23-4.13-4.68-1.14-8.29-6.2-12.54-5.42-4.77.87-12.36,5.2-14.42,9,3.22,3.06,6.89.65,11.39,2.57,3,1.29,4.51,6.8,8,7.31,3.65.55,7.7-2.2,11.29-2.7,8.5-1.17,14.62-1.51,21.51-.73.73.09,4,.62,4.77.79-5,2.05-12.4,9.55-15.73,10.25-3.51.73-8-2.39-13.69-2.09-5.9.31-9.91,3.25-12.86.79a24.23,24.23,0,0,1-5.27-7.56c-.65-1.3-2.59-1.7-1.58,1,1.23,3.25.88,8.65,4.92,11.29,3.56,2.32,8.5-.16,13.51-.67,6.56-.67,14.73,2.12,17.44,0s13.81-10.52,17.39-11.69C137,322.76,141.63,321.72,139.53,321.46Z"/><path d="M116.09,358.72c-3,.91-7-1.48-11.94-2.24-5.93-.92-9.16.38-13.2,1.69,4-10.54,22-7.14,25.14.55"/><path d="M430.28,366.92c-15.92-8.67-83.12-10-79-20.29,5.34-13.47,15.19-21.47,24-30.43,9.67-9.86,29.46-20.47,30.32-37.06.89-17.14-13.12-34.28-21.77-42.8C374,226.71,343.55,209.73,346,205c5-9.48,12.68-52,11.84-65.43-.51-8-7.84-21-10.82-28.37-3.21-7.9-.9-16-3-24-4.46-16.88-8.8-25.11-19.38-35.94-21.65-22.15-52-39.47-87.74-43.22-24.76-2.61-71.58,3.82-89.27,9.75C109.17,30.71,74.51,51,58.13,100.74A13.76,13.76,0,0,0,63.34,117c-5.81,20.44-10.21,41-14.54,62.86,1.62,1.18,2.41,4.91,2.79,7.3-12.84.37-22.62,5.67-25.42,14.37,1.25.8,3.47-1.22,4.71-.28-.21,18.07,9.23,24.1,25.19,26.52-.17,14.14-1.84,29.12-.91,44.83.69,11.79,3.77,25.48,5.91,39.12,1.88,12.05,2.41,20,4.54,32.53-16.38-1.61-45.55,6.68-56.19,13.13s-4,8.5,3.07,3.33c8.93-6.48,27.38-11.46,42.9-11.92,3.27-.09,11.39,2.36,12.5,2.1,3.34,18.84,8.87,35.87,21.87,44.51,2,1.35,10.81,5.47,14.57,5.47,5.1,0-2.41,10.83-.18,12.17,27,14.39,47.73,46.86,87.76,49,14.25.77,44.29-5.7,48.6-7,3.57-1.08-1.89,10.07-1.89,10.07-5.9,16.13-5.55,19,1,7.12,6.21-11.18,22.05-50.88,12.14-45.83-6.37,3.25-8.23,2.75-2.69-5.22,1.8-2.58,8-12.93,11.11-39.05,3-25.67.83-43.59,13.65-60.16,3.5-4.53,14.5-25.94,14.5-34.09,3.67-3.55,7.13-4.69,9.61-10.74,6.36-15.51,29.36-31.75,31.17-48.82,1.5-14.22-4.71-26.32-12.79-30.1-7-3.26-15.56-.21-20.88,2.06a44.42,44.42,0,0,0-5.12,2.45c-6.51,9.81-17.78,6.95-17.54,9.25,2.67,25.79-4.87,11.9-5.59,15.9-1.87,10.44-5.77,27-5.77,20.94,0-4.66,1.79-18.56-1.43-19.43-3.63-1-8.81,5.86-10.25,8.07-2.32,3.61-5.12,9.6-5.34,5.87-.49-8.57,8.44-23.85,7.49-29.15-.55-3.07,2.35-4,5.95-4.38s7.93-1.31,9.47-4.15c-6.5-1.08-11.21-1.16-17.09-1.61.38-7.16,2.74-14.88,2.44-23.11-.21-5.64-22.11-23.58-19.83-31.76.91-3.28,13.82-13.6,6.67-14.29-24.12-2.33-49.65-6.52-68.3-17.76-9.51-5.73-22-17-24.78-19.55C142.67,94,129.19,87,130.34,83.05c1.75-6,12.39-15.75,10.22-20.83-5-11.79,7.39-11.3,12-12.69,1.89-.57,12.47-6.29,10.27-7.36-1.9-.92-10.37,1.15-15,3-3.81,1.53-14.11,5.46-13.1,9.22,3.87,14.43-8.21,29.45-14.79,29.7-11,.43-20.21,2.83-32.86,6.49s-19.32,11.93-18.66,6.48C68.76,94.21,83,56,116,39.3c25.84-13,52.19-21.47,76.08-24.3,16.06-1.9,46.08,1.05,62.08,5C294,30,329.23,51.44,338.51,92.74c1.6,7.11-.9,21.42,1.9,28.27,3.59,8.75,12.45,13.07,11,25.23-2.53,21-5.48,50.59-13,59.29-11.27,13.09,2.05,8.58,4.51,9.54,7.95,3.13,39.72,24.11,49.12,37,5.17,7.1,10.87,23.87.58,37.51-8,10.55-25.11,25.54-34.78,35.11-16.38,16.22-19.67,39.77-20.43,55.25-1.46,29.7,39.19,83.84,21.14,46.22-3.32-6.92-10.22-19.37-12.18-27.16-4.88-19.35-3.46-41.68,1.46-40.59,20.67,4.58,67.05,4.9,81.25,12.63,7.79,4.24,17.9,24.8,19.16,18C448.9,385.59,438.24,371.26,430.28,366.92ZM56.52,223.32c-16.24-1-23.05-5.95-23.12-22.65,7.13-.53,20.94-1.73,19.94-5.82-.4-1.62-6.62-.25-9.27.38-3.45.81-7,.41-10.57,1.21.72-2.59,2.85-3.36,5.46-4.44,4.19-1.75,8.29-1.27,14.06-1.17C57.54,200.2,57.09,209,56.52,223.32Zm0-43.2c-1.61-3.67,4.05,2.24,6.23,1.56.67-.22-.59-1.25.58-2.49.64-.68,3.42.77,7.77,2.61a50.3,50.3,0,0,0-8.27,1.13c-1.66.31-5,.39-4.69,2.47,11-1.57,37.13-8.23,30.68,11.47-8.22-7.17-19-9.39-34.51-9.82a13,13,0,0,1-.86-4.12c-.06-1.93,1.24-.47,3,0C57.28,183.23,57.22,181.74,56.51,180.12Zm23.1-1.71c1.74-.06.94.55,2.74,3.2-2.25.25-4.44-.38-8.31.07.92-.76-1-1.14.58-2.68,1.28-1.27,2.32,1.63,3.86,1.24S78.58,178.45,79.61,178.41ZM59.41,205c.65-1.08,2.52,2.21,4,2.45,7.69,1.28,16.53-2.89,21.86-5l1.42-.65c-2.44,12.5-11.07,19.93-26.4,21.86A125.71,125.71,0,0,0,59.41,205Zm12.28-1.84c1-.86,2.47-4.25.24-6.59l-.21-.13h.09c4.77.05,10.69-.51,12.74,2.18-4.71,3.69-12.34,4.82-13.15,4.91l-.31,0C71.29,203.4,71.5,203.28,71.69,203.13Zm-13.11-9.29c.21,1.23,1.79,1.77,3.07,2.09a19.06,19.06,0,0,0,2,.34,3.77,3.77,0,0,0-.39.26c-.87.68-1.27,2.12-1.18,3.82a3.75,3.75,0,0,0,1.29,2.87c.06.05.08.08.08.1a.91.91,0,0,0,.17.09l-.2,0a28.72,28.72,0,0,1-3.15-1.07c-1.66-4.44-4-6.52-5.11-11.48,9.55-.18,16.52.44,23.44,2.82C72.69,194.19,63.94,191.74,58.58,193.84Zm183.54,37.64c-2.14,7.28-2.7,17.18.1,20.3,8.28,0,7.05-9.64,14-10.9.62,8.91-.15,16.65-1,26.05-.32,3.68-.07,8.12,1.86,10.41,2.34-7.38,6.05-12.69,7.68-19.79,1.43-6.27,4.41-25.37,8.35-22.25,4.17,3.3,6-10.61,3.77-19.27-.58-2.27,10.58-.39,14.36-8,8-2.24,13.15-10.24,23.1-6.59,8.36,3.07,12.8,13.5,11.77,25.53-1.39,16.27-19.93,28.7-29.49,40.78-3.92,5-5.31,11.66-8.91,16.16-7.7,9.59-24.86,4.33-23.31-7.1.55-4.05,2.42-4.64,4.19-8.15-3.33,0-7,3.52-7.67,6.6a13.78,13.78,0,0,0-.1,5.45c-7.93,13.85-17.57,35.1-26.38,49.32-2.44,3.93-9,14.39-9.31,17.8-.15,1.63.28,4.81,1.7-.41,11.13-12,19.9-30.48,27.32-45.72,2.34-4.8,9.81-8,12.08-13,3.33,2.27,5.11,4.91,9.6,4.18,2.71-.44,1.67,8.37-2.79,16.67A169.58,169.58,0,0,0,253.76,375c-2.13,23.11-3.6,38.22-15.8,51.19-3.72,4-4.52,13.74,6.23,8.49,4.67-2.28,2.19,10.3-1.11,12.86-2.55,2-10.6,4.27-12.79,4.63-10.08,1.67-20.9,3.09-31.53,2.89-44-.84-62.89-28-90.86-43.43-3.43-2.45,4.83-10.4,7.49-10.39,19,0,39.89-4.32,49.41-11.87,2.35-1.87,4.34-6.81,3.27-10.17-2.63,2.5-3.45,5.07-6,7-13.4,10.33-51.5,16.05-69.69,4.59C78.6,382.09,73,357.58,69,334.6c-4.07-23.48-9.48-45.76-10.42-66.32-.66-14.49,1.27-28.24,1.57-40.84,12.94-.79,21.86-10,23.39-11.58,2.69-2.82-2.22,14.29-5.93,23.61-3.45,8.69-9.07,19-8.25,28.9.68,8.19,12,12.33,14,12.59,4.77.63-5.41,10.17-2.31,10.41,3.55.27,6.19-5,7.28-8,.78-2.13,3.06-1,5.2-.21,2.3.88,8.63,1.31,6.39,0-11.72-6.85-28.31-3.84-26.39-21.88,1-9.5,7.15-18.09,10.06-29.07,3.07-11.56,3.45-22.94,7-31.51,4.1-.18,9.15-2,13.63-1.65a13.56,13.56,0,0,1,5.76,2.48,13.72,13.72,0,0,0-2.67,11.06c2.36,13.41,20.66,23,38.1,23.75,17,.72,33.18-7.06,33-24,18.94,7.82,47.13-.26,66.9-2.95C247.39,215.53,244.22,224.35,242.12,231.48ZM115,199.34c4.58-3.08,11.68-4.29,19.81-4.87,16.23-1.16,47.79,2.25,39.42,24.33-6.31,16.66-38.76,16.65-54.33,5.08-4.9-3.64-11.08-10.45-10-17,2.28,2.13,3.75,5.58,7.3,4.56C119.69,210.7,114.75,204.76,115,199.34ZM69.34,106.85c8-9.76,53.1-20.33,60-13.39,47.07,47.67,92.92,43,102.39,47.61,4.29,2.07-9.64,7.52-4.53,14.75,4.32,6.11,17,19.88,18.11,25.35,1.86,8.9,1,15.49-.92,25.3-20.31,2.24-48.45,9-66.47-.11-2.23-9.75-19.67-16.15-36.7-16-11.66.08-21.49,1.58-27.73,7.47a26.57,26.57,0,0,1-3.62-2c-4-2.73-13.27.45-18.89,1.07.18-4.1.88-5.94-.42-9a33.22,33.22,0,0,0-4-6.36c-2.77-3.69-5.21-10.52-9.78-10-1.46.17-.73,2.62-2,3.2-1.57.69-3.86-2.66-4.3-.67-.13.62.21,2.5-.46,2.83-1.64.79-6.35-2.07-9.89-2.56-1.8-.26-.31,3.36-.9,3-1.46-.8-4.3-.21-5.7-1.06,2.57-18.09,8.65-36.86,12.36-53.6.35-1.58,1.35-4,.8-5.74C68,115.1,68.32,109.5,69.34,106.85Z"/><path d="M284,261.7,282.4,260c-1.8-4.81-.51-17.12,4.11-21.87a6,6,0,0,1,6.25-1.54l.47.14.13.45a11.3,11.3,0,0,1,0,5.36l-.17.59-.62,0-1.45.13a19.84,19.84,0,0,1-5.49,0c-1.61,5,.5,8.91,1.53,12.67,4.71-2.17,14.75-10.67,16.38-14.27,2.61-5.76,4.13-13.14.8-17.22-2-2.39-3-4.18-6.32-3.59l-2-.82c4-.7,9.06-.14,11.43,2.75,4.19,5.13,2.36,14.59-.18,20.19-2,4.32-18.36,17.32-22.46,18.4Z"/><path d="M184.37,496.31C159,496.31,142,480.69,124,463.19c-2.73-2.66-22-18.81-17.16-20.49s23.75,21.35,28,25c15.86,13.88,31.95,18.38,52.76,18.05,5.95-.09,30.69-4.77,30.22.2C217.41,490,188,496.31,184.37,496.31Z"/><path class="eyes" d="M145,207.46a3.42,3.42,0,0,0,2.91.35c1.31-.74,1.53-1.57,2.14-2.94a3.18,3.18,0,0,0,.25-2.2,1.65,1.65,0,0,0-.94-1.1,2.09,2.09,0,0,0-1.88.7c-.43,1,1,2.23-1.21,2.58-1.83.28-.6-3.11-1.65-3.49a1.46,1.46,0,0,0-1.85,1.3A5.12,5.12,0,0,0,145,207.46Z"/><path class="eyes" d="M66.33,202.52a2.35,2.35,0,0,0,2,.33c.89-.49,1-1.07,1.46-2a2.28,2.28,0,0,0,.17-1.54,1.22,1.22,0,0,0-.65-.8,1.36,1.36,0,0,0-1.29.43c-.3.67.72,1.61-.82,1.79-1.26.15-.42-2.21-1.15-2.51a1,1,0,0,0-1.27.87A3.84,3.84,0,0,0,66.33,202.52Z"/><path d="M1354.36,373.51c-4.95-3.14-14.51-5.12-14.45-11.08,0-6.64,10.06-17,12.82-23.57,7.29-17.3,11.41-37.53,13.55-56.12,4.52,3.26-2.1,24.78-3.35,31s-4.08,18.59-5.54,24.84c-.61,2.62-2.9,4.74-2.78,6.61.23,3.81,5.59,9.72,9.29,12.06,2.42,1.53,14.94-20,14-23.26-2.94-10.39-4.62-33.39-4.1-48,.15-4.1,7.61-4.24,8.45-18.46.7-11.73,1.34-27.46,11.71-32.49,12.51-6.09,12.44-11.82,21.42-15.37,3.92-1.55,11.65-.78,15.21-1.07,9.06-.74.52-9.28-5.65-15.49-4-4-10.17-11.39-7.92-14.69,2.67-3.91,9.77,1.26,8.69-6.2-.67-4.68-13-15.76-15.73-20.92-14.73-27.51-15.94-59.41-28.06-87.64-9.74-22.69-35.53-47.58-61.75-48.38-6.74-.2-13.53,2.32-19.84,3.48-7.17,1.32-14.81-2.79-18-4.09a105.11,105.11,0,0,0-55.12-7.31c-30.92,4.48-57.88,23.36-76,48.34-16.47,22.69-28.16,52.63-38.86,78.54-8.76,21.22-17.3,53-11.91,75.58,1.69,7.12,6.92,13.12,8.23,20,1,5.1,0,10.88.63,16.12,1.84,16.38,12.22,28.4,13.8,44.62.55,5.58-.16,23.31,6.25,17.26,11.25-10.62,6-43,17.76-53.66-.43,7.28,2.42,12.86,2.84,19.22.46,7.13-5.23,30.09-7.44,36.3-.8,2.26-1.66,2.66-1.47,4.2.73,5.95,7.1,15.36,9,18.35,1.36,2.15,11.94-6.9,11.73-9-.67-6.66-11.17-46.81-4-50.61,3,13.44,3.47,27.19,5.72,40.75a87.24,87.24,0,0,0,4.75,18.27c.83,2.06,7.66,12.49,7.23,13.88-1.36,4.4-14.74,5.5-20,7-9.66,2.79-19,7.64-28.65,10.16-5.72,1.49-56.16,14.8-53.15,21.44,1.36,3,35-9.34,40.32-10.5-2.51,20.64,3.74,14.82,5,42,.51,11.32,7.48-8.63,6.63-35.34-.38-12-.48-12.6,10.91-16.92,12.19-4.63,25.69-5.87,38.74-7.34-.91,9-2.33,14.61-4.87,23.29-.57,2-10.23,12-5.45,12.34,8.18.51,18.23-33.07,18.69-38.24,10.35,12.57,18.3,20.37,29.25,32.37,9.7,10.64,18.65,17.71,33.35,20.09,33,5.34,60.93-20.45,86.09-45.24,0,3.41,8.18,36.15,14.44,33.14,1.89-.9-6.37-25.05-6.37-29.31,9.36,3.83,16.65,6.38,25,11.85,8.64,5.63,32.89,22.8,25.46,13.52C1386.94,395,1366.74,381.37,1354.36,373.51Zm16.17-80.39c-.5,18.65,3.59,38.54,2.36,40.63-1.35,2.3-9.5,4.63-12.09,6.25C1363.72,329.46,1369.78,296.69,1370.53,293.12ZM1374.8,337A112.42,112.42,0,0,1,1364.47,353c-.34-.45-4.17-5.64-5.71-7.47C1362.91,342.55,1370.3,339.41,1374.8,337Zm-237.55-72.29c-1.71,10.72-4.66,41.21-7.91,30.84-2.72-8.68-13.11-24.87-14-45.44-.38-8.79.53-15.24-3.32-23.24-5.25-10.94-8.5-20.4-7-32.2,5-39.78,22.63-71.53,40.2-107.22C1166,45.22,1211,16.3,1258.75,25.08c10.69,2,24.43,1.68,32.8,9.09,2.12,1.87-.15,8.18,5.49,6.17.68-.24,6.46-5.32,8.1-6.33,17.79-10.89,38.85,5.07,52,16.32,39.95,34.09,25.28,102.36,58.89,126.84,10.75,7.83-27.63,2,4.72,30.38,6.37,5.58-5.31,3.57-11.21,7.73-5.19,3.66-10.16,14.83-18,10.05-4.15-2.53-2.91-7-8.67-8.32-6.65-1.54-6.6,9.49-9.75,5.9-5.24-6,1.16-9.28-.65-19.42-1.15-6.5-5.65-10.72-9.36-16-10.76-15.17-6-35.89-13-52.57-4.44-10.64-20.81-25-25.84-35.48-2.09-4.37-2.9,10.49-4.42,12.82-2.07,3.19-5.13,5.78-8,8.14-5.6,4.56-12,8.31-18.2,11.94-32.32,18.84-76.15,11.47-97.91,46-17.91,28.41-6.58,64.86-11.29,73.39-2.52,4.58-1.5-4-3-12.38-1.39-8-2.32-20.3-2.83-28.38-.49-7.76-2-13.17-6.06-3.36-5.25,12.64-3.77,25.58-12.09,37.18C1153.25,254.93,1139.91,248.16,1137.25,264.75Zm69.22-29.55h0c5.32-.91,9.48-7.53,6.71-12.07a2.23,2.23,0,0,0-.45-.53l2.92-.16c5.49,1.16,12,9.69,9.09,10.28-6.77,1.35-11.44,3.53-18.24,4.05-3.5.27-9.54-.1-12.49-1.75-5.6-3.13-4.47-4.29-4.5-11.53h7.17a3.23,3.23,0,0,0-.47.9C1194.44,230.06,1200.19,236.26,1206.47,235.2ZM1150.93,339c-2-2.38-4.56-8.52-6.19-13a47.61,47.61,0,0,1,13.22,7.21C1156.4,335.35,1153,337.33,1150.93,339Zm7.13-9.82c-3.1-1.87-9.78-5.57-13.25-6.7.72-5.82,5.88-25.52,8-35.52C1153.54,298.48,1155.91,317.71,1158.06,329.13Zm158.11,48.6c-17.73,14-41.09,36.53-65.29,34.41-20.58-1.79-27.78-15.27-41.22-28.95-18.41-18.76-37.82-34.67-42.08-61.62-2-12.47-.22-24.81-2.83-37.19-.48-2.3-1.73-18.43-6.1-17.33-3.92,1-.23,10.19-2.74,11.65-.07-1.36-1.55-7.19-3.91-3.75-.82-3.43-1.89-11.15-.26-14.26s8.68-5.83,11.18-8.79c7.7-9.11,12.49-31.4,13.6-19.93.74,7.68,2.94,21.8,2.23,32.93-.38,5.9-2.23,31.2,5.56,14,5.9-13,5.83-26.66,5.51-40.65,7.54,2.58,49.17,2.83,39.68-10.4.92,1.06,5.57,2.59,4.64-.4-1.18-3.8-5.38-6.65-8.76-8.06-10-4.21-25-.18-35.83-.19.13-6.46,3.58-8.75,13.38-6.94,6,1.11,9.06,3.4,15,2.38,4.45-.77,5.36-3.67,8.56,1.14,1.49,2.23,1.73,4,4.93,4.16,6.28.24-2.23-12.43-7.06-12.81a24.16,24.16,0,0,0-9.17,2.43,8.44,8.44,0,0,1-8.09-.36c-6.19-3.57-9.46-5.35-16.35-2,12.52-71.38,100.29-40.5,134.55-89.34,13,14.35,20.64,20.9,23.52,40.88,2.14,14.85,5.08,23.43,12.79,35.87a33.32,33.32,0,0,1,5.08,18.53c0,4.79-5,23.57-.1,27.1,7.79,5.61,9.82-17.69,15.56-16.65,6.88,1.24.72,16.73-.86,21.62-2.88,8.91-.21,24.43-5.92,31.5-2.11-5.34-5.37,1.6-5.77,3-5.3-1.88,4.57-32.93-3.82-19.7-6.66,10.49-5,32.42-7.91,44.72C1350.25,337.14,1326.78,369.38,1316.17,377.73Z"/><path d="M1350.07,226.64c7.48,0-9.07-13.42-10.2-14.12a39.21,39.21,0,0,0-24.76-5.39c-8.19.81-14.57,4.63-22.27,3.68-5.73-.71-11.66-5.85-17.45-.08-1.73,1.73-3.29,7.32-1.85,9.2,2.86,3.75,6.37-4.06,8.34-4.81,2.91-1.11,8.91,2.64,13,2.44,2.42-.13,7.15-3,9.28-3.63a43.45,43.45,0,0,1,26.62-.07C1336.78,215.85,1345.64,226.64,1350.07,226.64Z"/><path d="M1244.27,245.77c2.66-6-.55-16.15-2.63-14.37-1.67,1.44,1.09,6.69-.65,13.87-.56,2.31-2,10.79.56,13.69S1241.6,251.82,1244.27,245.77Z"/><path d="M1338.6,229.19c-14.41,0-23.62-13.21-39.39-10.36-5,.91-13.17,3.35-16.55,7.34-1.09,1.29-6.73,7.64,1.46,4.2-9.82,10,28.41,14.67,34.59,13.45,7.08-1.39,11.37-7.41,14.67-8.33C1334.75,235.1,1346.15,229.19,1338.6,229.19Zm-25.91,10.67c-7.81-.16-16.61-.54-23.45-4.44-3.77-2.16,3.7-11,9.83-12.17.45-.09.9-.17,1.36-.24a4.24,4.24,0,0,0-1.6,1.23c-9.53,13.81,25.61,18.53,18.1,1.83a4.34,4.34,0,0,0-1.55-1.73c.57.18,1.14.35,1.74.56s1.82.72,1.78.69c2.64,1.38,5.84,3.65,9.1,5.37C1334.25,234.24,1314.84,239.9,1312.69,239.86Z"/><path d="M1296,333c-2.09-1.7-5.38,1.55-8.47,1.43-6-.23-13.14-3.09-19.17-2.87-4.86.18-9.57,1.77-13.82,1.78s-9.49-1.79-13.82-2c-5.68-.32-10.76,3.24-16.42,3-4.46-.18-6.56-4.41-10.82-2.08-5.74,3.12,2.89,2.13,3.52,2.47,2.79,1.52,5.2,10.19,7.58,12.94a19.82,19.82,0,0,0,8.19,6.1c8.11,3.46,16.34,3.84,24.9,3.94,6.48.07,14.25-.61,19.7-4.67,4.61-3.43,6.66-12,11.59-14.92C1296.14,333.76,1301.76,337.67,1296,333Zm-40.52,4.83c3.63-.43,9.55-2.63,13.4-3,4.86-.47,8.57,1.7,13.3,2.61-16.69,6.91-35.2,5.35-55-.65,2.16-.38,9.44-1.61,11.61-2C1243.44,334.06,1248.07,338.72,1255.47,337.82Zm16.63,13.56c-6.33,3-18.22,3.9-28.78,2.21-9.08-1.46-12.23-4.62-17.08-12.52,7.77,3.82,15.23,3.65,27.38,3.65,12,0,21.53.66,27-2-2.68,3.36-4.51,6.75-8.54,8.68Z"/><path d="M1215.69,443.73c-.39-2.86-4.41-20.41-10.74-17-4.18,2.27,4.54,9.5,5.63,12.74,1.61,4.79.67,16.87,6.48,19.29s-1.11-13.25-1.37-15.06C1214.85,437.65,1216.29,448,1215.69,443.73Z"/><path d="M1298.41,432.59c-6.44,5.09-7.07,10.5-10.12,17.47-1.29,2.94-9.71,12.86-3.31,12.86,5.43,0,8.18-15.78,10-19.28.86-1.65,6.58-7.6,6.49-8.4-.13-1.16-.3-4.83-3.07-2.65C1292,437.69,1299.34,431.85,1298.41,432.59Z"/><path d="M1235.7,300.19c-2.08.95-1.85,3.58-1.07,5.37-8.14-2.92-7.71-8.45-6.69-14.48,1.35-7.92,5.52-3.32,4.89-8.17-.73-5.62-5.72-.2-7.12,5.16-2.18,8.35-3.1,17.4,7.52,20.58,3.32,1,6.78-1.21,9.42-.67,4.38.9,6.25,5.47,11.62,5.5,4.55,0,6.65-3.58,10.47-4.33,2.81-.56,5.66.18,8.91-.44,10.26-2,12-7.93,9.79-17.3-.74-3.18-5.61-16.44-7.41-9.38-1.08,4.25,3.21,2.79,4.65,10.73,1.17,6.47,1.54,11.65-6.09,12.62,4.86-5.36-5.6-4.87-7.36-4.22-3.69,1.36-3.87,6-10,7.44-11.45,2.78-13.24-10.32-21.54-8.41Z"/><path class="eyes" d="M1304.54,232.49c.49.45,2.6,1.37,4,.83,2-.8,2.53-1.84,3.71-3.53a4.2,4.2,0,0,0,.9-2.81,2,2,0,0,0-1-1.55,3.28,3.28,0,0,0-2.77.66c-.84,1.18.88,3-2.33,3.18-2.6.13,0-4.09-1.42-4.72a2.22,2.22,0,0,0-2.88,1.44A6,6,0,0,0,1304.54,232.49Z"/><path class="eyes" d="M1203.16,230.78a4.24,4.24,0,0,0,3.53.43c1.64-.87,2-1.85,2.8-3.47a3.79,3.79,0,0,0,.45-2.61,1.82,1.82,0,0,0-1.09-1.3,2.66,2.66,0,0,0-2.33.8c-.59,1.14,1.12,2.66-1.64,3.05-2.25.33-.53-3.68-1.8-4.14a1.85,1.85,0,0,0-2.33,1.53A5.75,5.75,0,0,0,1203.16,230.78Z"/><path d="M1653.35,112.4c2-6.18-23.08-22.89-26.86-25.42-17.13-11.46-34-15-54.34-12-21,3.11-45.58,10.46-61.93,24.56-17.85,15.39-29.8,37.83-39.6,58.9-30.75,66.18-34.31,139.7-53.71,209.05-10.53,37.62-40,63.33-62.26,93.79-2.39,3.27,16.74-3.5,18.7-4.35,2.9-1.25,24.57-9.06,24.49-12.93,0-1.54-28.89,10.68-31.36,10.57,0,0,6.82-8.32,7.23-8.76,5.88-6.31,11.93-12.47,17.66-18.93,11.71-13.22,21.61-28.49,27.46-45.23,13-37.15,15-78.52,23.58-116.92,6.54-29.18,15-61.38,27.91-88.37,8.93-18.65,17.26-41.12,29.54-57.69s31.83-25.45,50.86-32c22.88-7.9,45.9-10.92,67.62,1.14C1621.36,89.48,1654.07,110.18,1653.35,112.4Z"/><path d="M1514.55,513.77c27,30,78.34,57.93,119.66,45.86,17.93-5.24,31-18.1,39.31-34.47,6-11.91,10.77-24.77,12.81-38,.6-3.88,4-24.49-1.23-26.85,2.74,1.25-1.33,27.73-2,30.62-2.46,11.15-7.54,21.94-12.78,32-8.87,17.13-22.85,29-42.14,32.42-21.73,3.87-44.7-2.54-64.35-11.61a157.49,157.49,0,0,1-30.5-18.38c-1.8-1.39-20.44-17.72-20.61-17.32C1512.19,509.45,1513.74,512.65,1514.55,513.77Z"/><path d="M1652.56,349.67c-.19-.92-1.48-5.42-3-3.65a5.55,5.55,0,0,0-.47,2.91c-6.7-.81-13.52-4.44-20.37-4.1-3,.14-5.68,1.83-8.54,1.77-3.15-.06-6-2.2-9.17-2.31-6.48-.24-13.54,3.51-19.79,5-3.46.84-21.71,2-20.94,6.32-.59-3.29,12,1.89,13.48,2.76,3.59,2.15,6.79,5.15,10.38,7.38,9.5,5.88,14.55,7.37,25.45,6.26,3.21-.33,8.39.42,11.25-.55,5.37-1.81,6.76-6.6,9.48-11.16,1.07-1.79,11.76-12.86,12.21-10.65Zm-55.78.58c3.84-1,8.25-2.62,12.26-2.49,4.93.15,8.92,2.68,13.7,2.35,6.3-.43,15.92-3.55,22.46-.08-8.6,1.63-16.29,6.13-25.32,6-11.45-.12-24.24-1.94-35.7-2.79,3.43.25,9.33-2.18,12.6-3Zm25.44,8.77c-.43,1.45-1.12,1.83-2.09,1.15-.88-.86,2-1.34,2.09-1.15C1622.3,359.36,1622.2,359,1622.22,359Zm14.45,1.57c-3.22,6-4.28,5.13-10.46,5.61-5,.38-12,2.58-16.87,2.29-8.12-.47-18.36-8-24.76-12.64,1.38,1,14.4-.21,18.05.34,5.13.78,12.92,3.41,16.15,4.14.42.09,1.09,2.22,3.23,2.21,2.48,0,.68-3.55,1.62-3.9,1.47-.55,17.14-3.42,17.26-4-.44,2.17-3.19,4-4.22,5.95C1634.41,364.84,1637.06,359.86,1636.67,360.59Z"/><path d="M1620.81,374.16q3.33.46,1,2.29C1619.74,376.72,1621.05,374.53,1620.81,374.16Zm-.35-1.48c-2.82.71-1.38,7.84,2.91,5.71C1627,376.58,1623,372.83,1620.46,372.68Z"/><path d="M1608.27,314.15c-6.29,2.69-13.42,3.72-15-4.87-.58-3.18.87-8.5,4-10.19,1.49-.8,6.69,1.13,7.21.2,1.29-2.29-5-3.39-6.09-3.28-5.5.58-7.93,7.84-7.58,12.45.36,4.8,2.68,8.68,7.53,9.77,2.19.49,13.07-1.42,13.19-4A2.43,2.43,0,0,0,1608.27,314.15Z"/><path d="M1646.65,301.2c-1.65-8.27-7.78-1.08-9.11-1.68,3.2,1.45,3.4-2,6,1.47,1.5,2.06,0,7.36-1,9.2-3.25,5.7-6.44,4-12.09,3.35,0,0,6.47-2,6-1.5.78-1,6-7.11-1-4.49.82-4.68-.85-10-2.25-14.32-.71-2.22-3-12.21-4.67-13.52,0,0,1.11,10.81,1.38,11.76,1.1,3.94,5,10.33,3.1,14.75-5.79,13.22-25.35-2.86-30.85,2.82-4.6,4.74,3.46,3.34,5.59,3.55,4.07.38,8.65,1.66,13,2.07,11.17,1.07,29.69,5.5,25.93-13.46C1645.78,296.84,1647.4,305,1646.65,301.2Z"/><path d="M1596.09,225.59c6-1.22-4.38-6.37-6-6.63-1.11-.19-4.07,1.64-5.76,1.66-2.94,0-7.92-2.85-11.2-3.39a53.12,53.12,0,0,0-16.93.15c-1.16.16-11,3-11.77,2.58,2.88,1.63,10.53-.89,13.72-1.26,6.8-.79,12.07-.77,18.62,1.74,2,.76,4.56,2.82,6.52,3.22,1.67.33,4.64-.1,5.57.12.58.14,1.64-2,2.84-1.8,3.46.6-2.11,4.92,4.36,3.61C1600.65,224.66,1591.52,226.51,1596.09,225.59Z"/><path d="M1741.56,454.25l-.33-.67.32.65c-12.37-25-24.4-51.13-29.55-78.71a414.52,414.52,0,0,1-6.63-89.92c.3-9.07.2-18.26,1-27.3.61-7.34,2.94-14.34,3-21.84.07-5.34-1.38-8.61-2-13-1.31-9-.92-18.36-2.12-27.42-2.4-18.3-6.18-37.64-14.74-54.17-4-7.66-9.23-15.06-16.3-20.15-.9-.65-16.43-9.23-17.18-6.3.51-2,17.93,12.63,18.62,13.43,8.57,9.89,14.32,22.32,18.28,34.7,4,12.57,6.12,25.71,7.33,38.83.51,5.55,2.65,14.85,1.12,20.42-1.41,5.15.23,3.1-5.41,4.77-2.61.77-6.15.82-8.81,1,3.07-15.72-3.49-37.65-7.83-53-.7-2.48-12.13-29.69-17.14-22.48-2.47,3.56,9.36,19.89,11,23.57,6.19,13.42,11.48,32.1,10.25,46.79-6.86-7.74-17.15-9.16-26.58-6.34-4.6,1.37-8,4.52-12.27,6.26a7.91,7.91,0,0,1-5.77,3,26.81,26.81,0,0,0-2.43-3.64c-4.09.44,0,6.41,2.3,7,3.41.86,9.77-5.43,12.71-6.85,8.35-4,21.38-7.07,29.13.29,8,7.61-8.56,6.28-14.89,6.74-9.1.65-20.45.06-29.07,3.3-8.19,3.08-12.65,6.69-22.42,5.35-5.45-.75-7.79-3.32-12.6-5.3-9.35-3.86-22.61-3.05-32.62-3.73-12.49-.83-26.24-4.47-38.68-3.35,18.08-20.87,40.33-36.1,61.8-53.08,8.27-6.54,16.52-13.1,24.89-19.5,1.25-.95,14.55-9.24,14.59-10.07-.27,5.74-16.19,17.14-19.87,20.41-5.39,4.8-49.84,37.68-46.61,42.15,6.63,9.18,63.86-47.4,71.69-46.56,2.64.29-15.53,19.51-15.61,19.39,4.07,5.5,23.16-12.19,25.16-14.37,4.8-5.24,6.68-14,11-18.58-6.86,7.29-11.95,21.7-22.81,24.48,4.42-1.13,20.65-30.68,16.79-31.52s-24.54,22.75-28.37,25.92a217.85,217.85,0,0,1-21,15.33c-1.77,1.13-7.62,3.41-10.07,5.27a7.17,7.17,0,0,0-1,1,3.67,3.67,0,0,1,1-1c7.66-7,57.5-47.62,50.35-53.65-3.16-2.67-30.59,19.32-34.93,22.59-15.91,12-33.18,22.05-48.93,34.28-17.32,13.45-34.46,28.94-45.43,48.2-13.44,23.62-12.92,43.75-7.72,69.62,7.69,38.18,25.17,75.18,24.07,114.59-.74,26.43-7.26,53.28-20.91,76.09-5.43,9.07-12.19,17.26-19.14,25.19-1.74,2-8,11.44-10.47,12,8.73-1.9,20.24-18.71,25.26-25.45a147.68,147.68,0,0,0,22.28-44.06c.86-2.75,2.62-15.3,5.11-16.06s9.71,6.38,11.68,7.76a42.58,42.58,0,0,0,17,7.56c1.73.34,16.33,4.76,16.79,4.44,2.56-1.77-15.54-7.16-17.45-7.83-9.13-3.17-15.47-8.2-22.09-15.12-8.22-8.59-3.67-20.15-3.65-31.62a169.25,169.25,0,0,0-3.83-36.46c-9.29-42.44-37.68-93.31-11.85-134.95-.5,8.19.34,20.73,6.49,27,6.6,6.75,18.94,5.37,27.8,5.77,13.93.62,28.46.24,42-3.59,10.46-3,11.34-7.06,16.3-15.74,3-5.31,7.66-11.49,14.26-7,4.89,3.3,3.65,12.34,7.2,16.68,9.71,11.91,40.94,7.39,54.18,4.27,0,17.94-4,36.65-5.21,54.67-1.13,16.49-7,26.26-16.29,39.44-19,26.92-35.14,76.23-79.39,56.39-14.61-6.55-30.13-17.54-40-29.91-1.74-2.18-4.54-8.61-8.49-6-7,4.66,6.49,13.73,9.16,15.43,14.81,9.46,30.15,23.78,47.86,27.07,25.37,4.7,43.28-7.72,55.36-29,3.43-.83,3,33.27,1.84,36.4-2,5.37-7.58,9.58-10.61,14.45-1.66,2.65-2.33,6-4.09,8.49-1.26,1.79-4.34,2.82-5,4.87-.46,1.57,6.12-2.73,6.85-3.5,2.77-2.91,3.56-7.53,6.32-10.63,2-2.25,7.77-7.33,10.94-7.48,5.34-.25,10.1,5.43,14.47,8.82,9,7,16.57,6.48,27.53,8.56a56.16,56.16,0,0,1,13.1,3.65c2.54,1.17,5.36,4.68,8.36,4.56,1.2,0-7.41-7-8.51-7.55-4.45-2.18-9.75-3.05-14.56-3.95-10.43-1.94-17.13-2.73-25.94-9.15-13.74-10-15.25-17.26-16-33.63-.65-13.44-.35-22.62,6.67-34.32,11.81-19.67,21.93-32.59,24-56,.77-8.94.92-17.93,1.8-26.85.63-6.33.39-15.79,2.43-21.77,1.45-4.25.21-2.17,3.38-5.16,2.6-2.46,5.78-3.46,8.31-6.26-1.33,46.08-2.82,92.22,10.85,136.88,5.61,18.3,13.58,35.39,22.13,52.43a96.77,96.77,0,0,1,9.42,29.54c.38,2.52,3.75,16.57,2,18.69.81-1-9.82-15.31-12.35-13.82,1.57-.93,13.64,30.39,18.88,28.62C1758.67,511.74,1744.19,459.58,1741.56,454.25ZM1568.05,249.89c5.43.35,10.29-4.31,9-9.94-.49-2.07-3.1-4-3.1-4a5.67,5.67,0,0,0-2.71-1.14,14.56,14.56,0,0,1,2.61.28,45.8,45.8,0,0,1,5.66,1.92,10.52,10.52,0,0,1,4.7,4.37c3,5.69-.16,6.82-6.76,8.46-4.84,1.21-17.32,2.38-21.1-2.21-2.48-3,2-8.93,8.42-11.54a9.64,9.64,0,0,0-1.87,1.34C1558.12,241.87,1561.88,249.5,1568.05,249.89Zm13.17,20.33c-11.55,1.16-26.83,3.12-38.39,1-12.9-2.36-21.14-24.35-12.28-35.3,6.81-8.41,26.26-3.15,35.67-3.06-1.72.23-20.18,5.08-18.27,10.39.62,1.73,6.77-2.94,7.8-3.48-4.6,4.62-5.82,4.14-1.87,8.23s14.43,4.63,19.57,4c2.87-.35,13-2.32,14.77-4.93,2.71-3.95-.31-3.71-3.76-8,.85.46,9,7.64,10.19,6.08,2.37-3-18.09-11.74-19.78-12.05,12.62.54,35.12-.05,33.07,18.22C1606.85,261.05,1594.17,268.92,1581.22,270.22ZM1644,238.58l.08-.05c-.1.17-.21.33-.3.51-4.17,14.82,24.42,6.55,9.53-3.93l0,0a6.31,6.31,0,0,1,.87,0c8.28.2,16,9.67,5.18,13.42C1651.59,251.17,1628.77,247.09,1644,238.58Zm42.75,26.17c-3.37,5.93-25.4,4-31.5,3.73-8.82-.44-3.54-.18,0,0-8-.41-15.46-1.31-20-8.6-5.16-8.28-5.64-18.88,4.7-22.12-.2.15-7,7.36-5.19,7.87a13.63,13.63,0,0,0,2.8-2.39c-2.13,9.28,12,9,18.68,7.93,5.46-.93,16.17-3.4,10.77-9.84a6.32,6.32,0,0,0,4.28,1.23c.31-.58-9.9-8.12-11.31-8.63a231.37,231.37,0,0,1,23.38-1.57c-1.07,6.11-.45,12.46.49,18.54C1684.11,253.15,1687.62,263.12,1686.7,264.75Zm14.92-17.3a21.76,21.76,0,0,1-12.4,16.63c-1.1-5.85-8-26.62-1.86-31.74,1.79-1.48,12.53.48,14.26,2.52,1.88,2.21.39,9.89,0,12.59"/><path class="eyes" d="M1648.46,244.22a3.59,3.59,0,0,0,2.94,0c1.35-.83,1.61-1.63,2.27-3a2.94,2.94,0,0,0,.33-2.1,1.32,1.32,0,0,0-.92-.94,2.47,2.47,0,0,0-1.92.84c-.48,1,1,2-1.32,2.55-1.86.45-.5-2.87-1.56-3.12a1.7,1.7,0,0,0-1.92,1.41A4.11,4.11,0,0,0,1648.46,244.22Z"/><path class="eyes" d="M1567.14,246.14a4.57,4.57,0,0,0,3.67,0c1.7-1.06,2-2,2.88-3.73a3.7,3.7,0,0,0,.44-2.59,1.55,1.55,0,0,0-1.14-1.14,3.19,3.19,0,0,0-2.41,1.07c-.61,1.18,1.18,2.45-1.68,3.18-2.33.59-.58-3.53-1.9-3.82a2.19,2.19,0,0,0-2.41,1.78A4.88,4.88,0,0,0,1567.14,246.14Z"/></svg>
